<?xml version="1.0" encoding="utf-8"?>
<!-- Generator: Adobe Illustrator 23.0.3, SVG Export Plug-In . SVG Version: 6.00 Build 0)  -->
<svg version="1.1" id="레이어_1" xmlns="http://www.w3.org/2000/svg" xmlns:xlink="http://www.w3.org/1999/xlink" x="0px"
	 y="0px" viewBox="0 0 147.3 50" style="enable-background:new 0 0 147.3 50;" xml:space="preserve">
<style type="text/css">
	.st0{fill-rule:evenodd;clip-rule:evenodd;fill:#E68211;}
	.st1{fill-rule:evenodd;clip-rule:evenodd;}
</style>
<g>
	<g>
		<g>
			<g>
				<g>
					<path d="M18.8,44.5c-0.1,1.1-1,2.1-2.1,1.5c-0.3-0.2-0.6-0.5-0.8-0.9c-0.1-1.1-0.3-2.2-0.6-3.3c-0.3-1.1-0.6-2.2-0.9-3.3
						L5,38.6c0,0-0.1,0-0.2,0c-0.1,0-0.1,0-0.2,0c-0.6,2-1.1,4.2-1.6,6.3c-0.2,0.5-0.5,0.8-0.8,1c-0.4,0.2-0.9,0.2-1.2,0.1
						c-0.3-0.1-0.6-0.3-0.8-0.6C0,45.1-0.1,44.6,0,44.1c0.8-3.5,1.7-6.9,2.9-10.2c1.1-3.3,2.5-6.6,4.2-9.7c0.1-0.5,0.5-0.7,1-0.9
						c0.3-0.1,0.5-0.1,0.8-0.1c0.2,0.1,0.4,0.2,0.6,0.3c0,0,0,0,0,0c0,0,0,0,0,0c1.3,1.2,2.3,2.6,3.1,4.1c0.8,1.5,1.6,3.1,2.3,4.6
						c0.3,0.6,0.5,1.1,0.7,1.7c0.2,0.6,0.5,1.1,0.7,1.7c0,0,1.9,0,1.9,0c0.6,0,1.3,0.9,1.3,1.5c0,0.7-0.7,1.4-1.4,1.4l-0.8,0
						c0.3,1,0.6,2,0.8,3C18.5,42.5,18.7,43.5,18.8,44.5z M9,27.2c-0.7,1.4-1.3,2.8-1.9,4.2c-0.6,1.4-1.1,2.8-1.6,4.3l7.6-0.1
						c-0.3-0.7-0.6-1.4-1-2.1c-0.7-1.4-1.4-2.8-2.1-4.2C9.8,28.6,9.5,27.9,9,27.2z"/>
					<path d="M44.8,44.1c0.7,0.1,1.2,1.1,1.1,1.7c-0.1,0.7-0.9,1.3-1.6,1.2c-1.8-0.2-2.2-0.2-4-0.4c-1.8-0.2-3.6-0.4-5.4-0.6
						c-0.9-0.2-1.4-0.8-1.4-1.7c0.6-4.9,1.2-9.7,1.8-14.6c0.2-1.4,0.3-2.8,0.5-4.2c0.1-0.4,0.4-0.8,0.7-1c0.3-0.2,0.7-0.3,1-0.3
						c0.9,0.1,1.9,1,1.8,1.9c-0.1,0.9-0.2,1.9-0.3,2.8c-0.2,1.9-0.4,3.7-0.6,5.6c-0.4,2.9-0.7,5.8-1.1,8.8c1.6,0.1,2.6,0.3,4.2,0.4
						C43,44,43.1,43.9,44.8,44.1z"/>
					<path d="M33.4,39.6c0.7-0.1,1.5,0.7,1.6,1.3c0.1,0.7-0.5,1.5-1.2,1.6c-1.8,0.4-2.1,0.5-3.9,0.8c-1.8,0.3-3.6,0.7-5.4,1
						c-0.9,0.1-1.5-0.4-1.8-1.3c-0.9-4.8-1.7-9.7-2.5-14.5c-0.2-1.4-0.5-2.8-0.7-4.2c0-0.5,0.1-0.8,0.4-1.1c0.2-0.3,0.5-0.5,0.8-0.5
						c0.9-0.2,2.1,0.4,2.3,1.3c0.2,0.9,0.3,1.9,0.5,2.8c0.3,1.8,0.7,3.7,1,5.5c0.5,2.9,1,5.8,1.5,8.7c1.6-0.3,2.6-0.5,4.1-0.8
						C31.7,40,31.8,40,33.4,39.6z"/>
					<path d="M52.7,43.1c-0.5-0.5-0.7-1.2-0.2-1.9c0.5-0.6,1.4-0.6,2.1-0.3c1.4,0.7,2.3,1.4,3.9,1.6c1.4,0.2,3,0.2,4.2-0.7
						c1.3-1,2.4-2.7,1.4-4.3c-1-1.7-3.7-1.9-5.5-1.9c-1.6,0-3.8-0.3-5.2-1c-1.5-0.7-2.6-2.8-2.7-4.4c-0.1-2.1,1.1-3.9,2.8-5
						c2.6-1.7,6.8-3,9.7-1.5c0.8,0.4,1.4,1.4,0.7,2.3c-1.1,1.4-3.6,0.2-5,0.4c-1.4,0.2-3.3,0.7-4.2,1.9c-0.5,0.6-0.7,1.5-0.5,2.3
						c0.4,1.6,2.7,1.6,3.9,1.7c2,0.2,4,0.4,5.9,1.1c5,2,4.3,7.5,1,10.4c-2.2,2-5.9,1.9-8.6,1.1C55.3,44.8,53.7,44.2,52.7,43.1z"/>
					<path d="M80.3,23.2c0.5,0,0.8,0.2,1.1,0.4c0.3,0.2,0.4,0.5,0.5,0.8c0.1,0.3,0,0.7-0.2,1c-0.2,0.3-0.5,0.5-0.9,0.7l-5,1.2
						c0,0,3.9,17.1,3.9,17.1c0.3,1.4-0.9,1.9-1.6,2.1c-0.3,0.1-1.1,0.1-1.4-0.1c-0.3-0.2-0.6-0.5-0.8-1L72,28.1l-5.1,1.2
						c-0.5,0-0.9-0.1-1.2-0.3c-0.3-0.2-0.5-0.5-0.5-0.9c-0.1-0.4,0-0.7,0.2-1.1c0.2-0.3,0.6-0.6,1.1-0.7c0.3-0.1,0.8-0.2,1.5-0.3
						c0.7-0.2,1.5-0.3,2.5-0.6c0.9-0.2,1.9-0.4,3-0.7c1.1-0.2,2-0.5,3-0.7c0.9-0.2,1.8-0.4,2.5-0.6C79.6,23.4,80.1,23.3,80.3,23.2z"
						/>
					<path d="M113.7,45.3c-0.4,0.2-0.7,0.3-1.1,0.2c-0.3-0.1-1-0.3-1.3-0.6c-0.2-0.3-0.3-0.7-0.3-1.3c0,0,3.6-16.8,3.6-16.8
						c0,0.1-0.7-0.5-0.8-0.5c-0.2-0.3-0.3-0.7-0.2-1.1c0.1-0.5,0.5-1,0.9-1.2c1.1-0.4,2.4-0.7,3.7-0.8c1.3-0.1,2.6,0,3.9,0.2
						c2,0.4,3.9,1.4,5.2,3c0.8,1,1.3,1.9,1.5,2.9c0.4,1.7,0.1,3.5-0.8,5c-0.8,1.4-1.6,2.5-3,3.3c-0.7,0.4-1.5,0.7-2.4,0.9
						c0.7,1.2,1.4,2.5,2.2,3.8c0.8,1.3,1.5,2.6,2.2,3.8c0.4,0.6-0.2,1.6-0.9,2c-0.8,0.5-1.7,0.1-2.1-0.7c-1.2-2.1-2.4-4.2-3.6-6.2
						c-0.3-0.5-0.6-1-0.9-1.5c-0.1-0.1-0.5-1-0.6-1c-1.3,0-2.2-0.2-3.4-0.5l-1.2,5.8C114.2,44.7,114,45.1,113.7,45.3z M125.1,28.3
						c-1.4-1.5-3.2-2.1-5.2-2.1c-0.6,0-1.1,0-1.7,0.1l-2,9.2c0.9,0.1,1.4,0.3,2.3,0.4c1.5,0.2,3.1,0.1,4.4-0.6c1-0.5,2-1.2,2.6-2.2
						C126.6,31.5,126.4,29.7,125.1,28.3z"/>
					<path d="M140.3,44.4c-0.1,1.3-1.2,2.4-2.5,2c-0.8-0.2-1.2-1.1-1.4-1.9c0-2.9,0-5.9,0-8.8c-1.5-1.4-2.6-3-3.8-4.6
						c-1.2-1.6-2.2-3.5-2.8-5.5c-0.3-0.9,0.7-2,1.6-2c0.6,0,1,0.3,1.4,0.8c0.5,1.7,1.3,3.2,2.3,4.6c1,1.4,2.1,2.7,3.3,3.9
						c1.2-1.4,2-2.7,3.2-4.1c1.2-1.4,2.2-2.9,3-4.4c0.3-0.5,0.8-0.9,1.4-0.9c0.4,0,0.7,0.1,1,0.4c0.5,0.5,0.5,1.2,0.3,1.8
						c-1,1.8-2.1,3.5-3.5,5.1c-1.3,1.6-2,3.2-3.3,4.8l-0.1,0.1C140.2,38.7,140.2,41.5,140.3,44.4z"/>
					<g>
						<path class="st0" d="M96.6,20.7c-6.3,0-11.1,5.9-12.3,15.1C83.3,44.1,88,50,95.7,50c8.4,0,13.9-6.1,13-14.6
							C107.8,26.6,102.9,20.7,96.6,20.7z M96,45.8c-5.2,0-8.2-3.9-7.7-9.9c0.6-6.5,3.8-10.9,8.1-10.9c4.5,0,7.7,4.2,8.2,10.8
							C105.1,41.6,101.5,45.8,96,45.8z"/>
						<g>
							<path class="st0" d="M93.3,22.6c-3.2-0.8-6.5-1.6-9.7-2.9l-0.6-0.2L83,19.7l-0.6,1.4l0.6,0.2c3.3,1.3,6.6,2.1,9.9,2.9
								c0,0,0.6,0.2,0.6,0.2l0.2-0.6c0,0,0.2-0.9,0.2-0.9l0.1-0.2L93.3,22.6z"/>
							<path class="st0" d="M108.1,23.9c-2.5-0.6-5-1.2-7.4-2l-0.6-0.2l-0.1,0.2l-0.5,1.5l0.6,0.2c2.5,0.9,5.1,1.5,7.6,2.1
								c0,0,1.7,0.4,1.7,0.4l0.2,0.1l0.4-1.7L108.1,23.9z"/>
							<path class="st0" d="M95,21.3l-0.2,0l-0.4,0c-3.6,0.1-7.8,0.6-11.4,3.5l-0.5,0.4l1.1,1.4l0.5-0.4c3.2-2.5,7-3,10.3-3.1l0.6,0
								L95,21.3z"/>
							<path class="st0" d="M91.7,20.6c-2.9-0.3-6.6-1.8-7.7-5.2l-0.2-0.6l-0.2,0.1l-1.5,0.5l0.2,0.6c1.3,4.2,5.8,6.1,9.2,6.4
								l0.6,0.1l0.2-1.8L91.7,20.6z"/>
							<path class="st0" d="M112.7,18.5l-0.2,0.1l-0.3,0.3c-2.7,2.2-6.9,2.9-12.6,2.2L99,21.1l-0.2,1.8l0.6,0.1
								c6.2,0.7,10.9-0.1,13.9-2.6l0.5-0.4L112.7,18.5z"/>
						</g>
						<path class="st1" d="M111.2,8.6c0-0.1,0-0.1,0-0.2c0-1.7-0.9-4.2-1.8-5.1c-0.3-0.2-0.5-0.4-0.7-0.3l-0.1,0l0,0.1
							c-0.4,0.9-4.2,7-7.3,7.2c-0.8,0.1-1.4-0.3-2-1c-0.5-0.8-1-1.6-1.5-2.4c-0.9-1.5-1.7-3-3-4.1c-4.5-3.7-10-3-13.7-1.8L81,1
							l0.3,0.3c0.9,0.9,2.4,2.5,2.5,3.6c0.4,5.1,1.4,10.8,5.3,14.6c3.2,3.1,7.4,3.8,12.4,2.1l0.3-0.1c0.4-0.1,1,0,1.5,0.1l0.3,0
							c1.2,0.1,3.1-0.3,4.3-1.3c0.8-0.7,1.2-1.5,1.3-2.4c0,0,0.7-0.5,0.7-0.5c0.5-0.3,1-0.7,1.6-1.3c0.8-0.9,1.2-2,1.2-3.1
							C112.7,11.7,112.2,10.2,111.2,8.6z M109.7,14.8c-1.2,1.8-2.9,2.1-4.5,2.4l-0.8,0.2c-0.3,0.1-1.9,0.1-2.3-0.2l-0.2-0.1l0.1,0.2
							c0.4,1.2,3.1,1.2,4.3,0.9c-0.3,0.5-0.8,0.9-1.5,1.1c-1.9,0.5-4.8-0.2-6.9-1.6l-0.2-0.1l0,0.2c0,0,0.2,1.9,2.9,2.5
							c-1.6,0.4-4,0.3-4.7,0.3C90,20.3,86.9,14.1,86,9c-0.1-0.9-0.3-1.9-0.4-2.9c-0.1-1.6-0.4-3-1.3-3.9C86,1.7,88,1.6,90,2.1
							c3.3,0.8,4.5,2.8,6,5.2L96.4,8c1.4,2.3,3.1,4.6,6,4.1c2.5-0.5,5.4-3.5,6.4-5.5c0.1,0.1,0.2,0.3,0.2,0.3c0.3,0.5,0.4,1,0.4,1.4
							c0,0.7-0.2,1.4-0.5,1.9c-0.7,1.6-1.9,2.6-4,3.4l0,0.2c1.6,0.1,3-0.9,3.9-1.6c0.4-0.3,0.9-1,1.2-1.7c0.1,0.2,0.1,0.5,0.1,0.5
							c0.1,0.4,0.2,0.8,0.2,1.3C110.4,13.3,110.2,14.2,109.7,14.8L109.7,14.8z"/>
						<g>
							<path d="M88.8,5.2c-0.2-0.6-0.9-1-1.5-0.8c0.2,0,0.3,0.2,0.4,0.3c0.1,0.3-0.1,0.6-0.3,0.6c-0.3,0.1-0.6-0.1-0.7-0.3
								c0-0.1,0-0.2,0-0.3c-0.3,0.3-0.4,0.8-0.3,1.2c0.2,0.7,0.9,1,1.6,0.8C88.7,6.6,89,5.9,88.8,5.2z"/>
						</g>
					</g>
				</g>
			</g>
		</g>
	</g>
	<path d="M22.4,6.8c2.1,0,3.8-1.5,3.8-3.4c0-1.9-1.7-3.4-3.8-3.4c-2.1,0-3.8,1.5-3.8,3.4C18.6,5.3,20.3,6.8,22.4,6.8z M22.4,1.6
		c0.9,0,1.6,0.8,1.6,1.8c0,1-0.7,1.8-1.6,1.8c-0.9,0-1.6-0.8-1.6-1.8C20.8,2.4,21.5,1.6,22.4,1.6z M25.7,11.5h3.6v1.4h2.3V1.3
		c0-0.6-0.5-1.1-1.1-1.1h-1.1V10h-3.6V11.5z M11.4,12.2h1.1c0.6,0,1.1-0.5,1.1-1.1V1.8c0-0.3-0.2-0.5-0.5-0.5H1.7v1.6h9.7V12.2z
		 M23.2,15.1v-3h-2.3v4c0,0.3,0.2,0.5,0.6,0.6H31c0.4,0,0.8-0.4,0.8-0.8v-0.8H23.2z M9.8,8.5c0-0.6-0.5-1.1-1.1-1.1H7.6v7H6.2V8.5
		c0-0.6-0.5-1.1-1.1-1.1H4v7H0.4v1.6h13.8c0.4,0,0.8-0.4,0.8-0.8v-0.8H9.8V8.5z M23.2,11.3V8.9h5.1V7.4H17.1v1.6h3.8v2.4H23.2z"/>
</g>
</svg>
