<?xml version="1.0" encoding="utf-8"?>
<!-- Generator: Adobe Illustrator 23.0.3, SVG Export Plug-In . SVG Version: 6.00 Build 0)  -->
<svg version="1.1" id="레이어_1" xmlns="http://www.w3.org/2000/svg" xmlns:xlink="http://www.w3.org/1999/xlink" x="0px"
	 y="0px" viewBox="0 0 93.8 50" style="enable-background:new 0 0 93.8 50;" xml:space="preserve">
<style type="text/css">
	.st0{fill:#76BC21;}
	.st1{fill:none;}
	.st2{fill:#EA0029;}
	.st3{fill:#636569;}
	.st4{fill:#FFFFFF;}
</style>
<g>
	<g>
		<path class="st0" d="M45.7,1.1c2,0.6,3.2,2.5,2.6,4.7c-0.7,2.7-4.4,2.9-6.6,1.6c-1.8-1.2-2.1-3.7-0.5-5.4
			C42.6,0.7,44,0.8,45.7,1.1z"/>
		<path class="st1" d="M45.7,1.1c2,0.6,3.2,2.5,2.6,4.7c-0.7,2.7-4.4,2.9-6.6,1.6c-1.8-1.2-2.1-3.7-0.5-5.4
			C42.6,0.7,44,0.8,45.7,1.1z"/>
		<path class="st0" d="M53.6,9.6c0.7,0.9,0.5,2.1-0.5,2.9c-1.2,1-2.9-0.1-3.5-1.4c-0.5-1.1,0.2-2.3,1.5-2.6
			C52.2,8.4,53,8.9,53.6,9.6z"/>
		<path class="st1" d="M53.6,9.6c0.7,0.9,0.5,2.1-0.5,2.9c-1.2,1-2.9-0.1-3.5-1.4c-0.5-1.1,0.2-2.3,1.5-2.6
			C52.2,8.4,53,8.9,53.6,9.6z"/>
		<path class="st0" d="M34.3,5.9c1.1-0.4,2.7,0.1,3.2,1.4c0.6,1.7-1.2,3.2-2.8,3.3c-1.4,0.1-2.4-1.1-2.3-2.6
			C32.7,6.8,33.4,6.2,34.3,5.9z"/>
		<path class="st1" d="M34.3,5.9c1.1-0.4,2.7,0.1,3.2,1.4c0.6,1.7-1.2,3.2-2.8,3.3c-1.4,0.1-2.4-1.1-2.3-2.6
			C32.7,6.8,33.4,6.2,34.3,5.9z"/>
		<path class="st2" d="M31.6,14.6c-4.7,3.5-8.9,4.6-15.6,2.6c-6.2-1.8-12.8,0.3-15.1,6.9c-4.6,13.1,9.7,23.8,23.4,25.5
			c12.4,1.6,23.6-1.7,28.8-11.3c3.8-6.9,4-16.6-2-22.1C45.7,11.3,39.3,9.9,31.6,14.6z"/>
		<path class="st2" d="M37.4,10.2c0.8-0.8,1.3-1.8,0.9-3c-0.5-1.6-2.2-2.4-3.7-2c-0.1,0-0.1,0-0.2,0c-1.9-0.2-3,2.2-2.7,3.8
			c0.3,1.9,2.3,2.8,4,2.3c0.1,0,0.1,0,0.2-0.1c0.4,0.9,0.6,2,0.6,3.1c0,1,1.5,1.5,1.8,0.4C38.8,13.2,38.3,11.6,37.4,10.2z M33.3,8.4
			c0-1.1,0.9-1.3,1.5-2c0.8,0,1.5,0.3,1.9,1c0.3,0.6,0.1,1.1-0.3,1.5c-0.1-0.1-0.2-0.2-0.3-0.4c-0.8-0.8-2,0.2-1.3,1.1
			c0,0,0.1,0.1,0.1,0.1C34,9.9,33.3,9.3,33.3,8.4z"/>
		<path class="st2" d="M46.3,0.7c0-0.1-0.1-0.1-0.2-0.2c-2.5-1.4-5.7,0.3-6.6,2.9c-0.9,2.6,1,4.8,3.5,5.4c-0.1,0.5-0.2,1-0.3,1.6
			c-0.4,1.5-1.1,2.4-2,3.6c-0.8,1.1,0.7,2.2,1.7,1.5c1.4-0.9,2.1-2.9,2.5-4.4c0.2-0.7,0.3-1.5,0.3-2.2c1.5-0.2,2.9-0.9,3.6-2.4
			C50,4.3,48.5,1.5,46.3,0.7z M47.5,5.8c-0.3,1-1.3,1.4-2.3,1.5c0-0.4-0.1-0.9-0.1-1.3c-0.2-1.3-2.1-0.9-2,0.4c0,0.3,0,0.5,0,0.8
			c-1.4-0.4-2.3-1.6-2-3.2c0.3-1,1.1-1.8,2.1-2.1c0.8-0.3,1.7,0,2.6-0.1c0,0,0,0,0.1,0C47.4,2.5,48.1,4.1,47.5,5.8z"/>
		<path class="st2" d="M54.3,9.6c0,0,0-0.1,0-0.1c-0.1-0.8-0.9-1.3-1.5-1.6c-0.8-0.4-1.8-0.3-2.6,0.1c-1.5,0.7-1.9,2.7-1,4
			c0,0,0.1,0.1,0.1,0.1c-0.8,1-1.5,2.1-1.3,3.4c0.1,0.9,1.3,0.7,1.5-0.1c0.2-0.9,0.5-1.6,1-2.3c0.9,0.5,1.9,0.7,2.9,0.1
			C54.5,12.6,55.1,10.9,54.3,9.6z M52.5,12.1c-0.3,0.2-0.6,0.1-0.9-0.1c0.1-0.1,0.2-0.1,0.3-0.2c0.7-0.5-0.2-1.5-0.9-1
			c-0.1,0.1-0.3,0.2-0.4,0.3c-0.4-0.6,0-1.3,0.6-1.5c0.9-0.4,1.5,0.5,2.2,0.8C53.5,11,53.2,11.7,52.5,12.1z"/>
	</g>
	<g>
		<path class="st3" d="M87.2,22.1h-2.9v0.1c0,3.8-3.4,5.4-6.4,6.4l-0.1,0l1.1,2.2l0.1,0c2.6-0.5,5.7-2.6,6.8-4.5
			c1.6,2.5,4.6,4.1,6.9,4.5l0.1,0l1.1-2.2l-0.1,0c-3-1-6.4-2.7-6.4-6.4v-0.1H87.2z"/>
		<path class="st3" d="M92.8,35.1h-2.7c0,0,0,1.3,0,1.5c-0.2,0-8.4,0-8.6,0c0-0.2,0-1.5,0-1.5h-2.8v4.5c0,1.9,1.3,3.3,3,3.3h8
			c2,0,3.3-1.2,3.3-3v-4.8H92.8z M90.1,38.8c0,0.2,0,1,0,1c0,0.5-0.3,0.8-0.7,0.8h-7.1c-0.4,0-0.7-0.4-0.7-0.8c0,0,0-0.8,0-1
			C81.7,38.8,89.9,38.8,90.1,38.8z"/>
		<path class="st3" d="M93.7,31.7H77.8v2.3h16v-2.3H93.7z"/>
		<path class="st3" d="M66.2,21.4h-2.9c0,0,0,1.4,0,1.6c-0.2,0-4,0-4,0v2.3c0,0,1.4,0,1.9,0c-1.2,1.1-1.8,2.2-1.8,3.6
			c0,3.5,2.8,5.1,5.5,5.1c2.7,0,5.5-1.8,5.5-5.1c0-1.6-0.7-2.5-1.9-3.6c0.4,0,2,0,2,0V23c0,0-3.9,0-4.1,0c0-0.2,0-1.6,0-1.6H66.2z
			 M62.2,28.8c0-2,1.4-2.9,2.6-2.9c1.3,0,2.7,1,2.7,2.9c0,1.9-1.4,3-2.7,3C63.6,31.8,62.2,30.9,62.2,28.8z"/>
		<path class="st3" d="M60.5,35.1h-0.1v2.3h10.7c0.5,0,0.7,0.3,0.7,0.8v4.7h2.8v-4.5c0-1.6-0.3-3.3-2.8-3.3H60.5z"/>
		<path class="st3" d="M74.6,22.5h-2.7V34h2.8c0,0,0-5.4,0-5.7c0.2,0,2.1,0,2.1,0v-2.3c0,0-1.9,0-2.1,0c0-0.2,0-3.6,0-3.6H74.6z"/>
	</g>
	<path class="st4" d="M24.6,31.3C24.6,31.4,24.6,31.4,24.6,31.3c0.5-1.9,0.7-3.8,0.3-5.5c-0.6-2.6-2.7-4.5-5.8-5
		c-5-0.9-9.2,0.8-9.4,0.8c-1,0.4-1.5,1.5-1.1,2.5c0.4,1,1.5,1.5,2.5,1.1c0,0,3.4-1.3,7.3-0.6c1.1,0.2,2.4,0.7,2.7,2.1
		c0.3,1.6-0.2,3.9-1.3,5.8c-5.6,0.7-10-0.9-10-0.9c-1-0.4-2.2,0.1-2.5,1.2c-0.4,1,0.1,2.2,1.2,2.5c0.2,0.1,2.3,0.8,5.5,1.2
		c-0.3,1.4-0.3,3.5,0.7,6.1c0.4,1.1,1.6,1.7,2.7,1.2c1.1-0.4,1.6-1.7,1.2-2.8c-1-2.6-0.4-4-0.2-4.4c2.3-0.1,4.9-0.6,7.6-1.6
		c1-0.4,1.5-1.5,1.2-2.5C26.8,31.5,25.6,31,24.6,31.3z M48.2,32.5c-0.4-1-1.5-1.5-2.5-1.1c-1.8,0.6-3.6,1-5.3,1.1v-2.1
		c2.2-0.1,4-0.3,4.5-0.4c1.1-0.3,1.6-0.7,1.8-1.6c0.2-1,0.3-1.9,0.3-2.7c0-1.5-0.2-3.3-0.3-3.5c-0.2-0.8-0.7-1.3-1.5-1.6
		c-1.6-0.7-11.1-0.6-12.9-0.1c-0.9,0.2-1.8,0.5-2.1,1.5c-0.7,2.9,0,6.7,0,6.7c0.1,0.5,0.8,1,1.7,1.2c1.3,0.3,2.8,0.5,4.4,0.5v2.1
		c-3.2-0.3-5.4-1.1-5.3-1c-1-0.4-2.2,0-2.6,1.1c-0.4,1,0.1,2.2,1.1,2.6c0.9,0.3,8.4,3.2,17.4,0C48.1,34.6,48.6,33.5,48.2,32.5z
		 M34.1,26.3c-0.4-0.1-0.4-0.6-0.4-1.1c0-0.7,0.1-1.1,0.8-1.2c1.3-0.2,6.2-0.2,7.6,0c0.6,0.1,0.9,0.3,0.9,1c0,0.7,0.1,1.1-0.6,1.3
		C41.2,26.7,34.8,26.5,34.1,26.3z M44.6,39c-1.8,0.5-3.6,0.8-5.4,0.8c-0.8,0-1.7,0-2.5,0c-0.5,0-1.1-0.1-1.6-0.3
		c-0.6-0.4-0.7-0.8-0.9-1.4c-0.2-0.7-0.9-1.3-1.7-1.4c-1.1-0.1-2,0.7-2.2,1.7c0,0.3-0.1,1,0.3,2.2c0.3,0.8,1,1.7,1.8,2.1
		c2.8,1.5,9.2,1.2,13.4,0.1c1.1-0.3,1.7-1.4,1.4-2.4C46.7,39.3,45.6,38.7,44.6,39z"/>
</g>
</svg>
