<?xml version="1.0" encoding="utf-8"?>
<!-- Generator: Adobe Illustrator 23.0.3, SVG Export Plug-In . SVG Version: 6.00 Build 0)  -->
<svg version="1.1" id="레이어_1" xmlns="http://www.w3.org/2000/svg" xmlns:xlink="http://www.w3.org/1999/xlink" x="0px"
	 y="0px" viewBox="0 0 48 50" style="enable-background:new 0 0 48 50;" xml:space="preserve">
<style type="text/css">
	.st0{fill-rule:evenodd;clip-rule:evenodd;fill:#EA0029;}
</style>
<g>
	<g>
		<path class="st0" d="M15.3,26c0,0.1-0.1,0.1-0.1,0.1c0,0,0,0,0-0.1c0,0.1-0.1,0-0.1,0.1c0,0-0.1-0.1,0,0c-0.1,0-0.2,0-0.2,0.1
			c0,0-0.1,0-0.1,0l-0.2-0.1c-0.1,0.2,0,0-0.3,0.1c0,0,0,0-0.1,0c-0.1,0-0.1,0-0.1,0c0,0-0.1,0-0.1,0c0,0,0,0.1,0,0c0,0,0,0,0,0
			c0,0-0.2-0.2-0.2-0.1c0,0,0,0-0.1-0.1c0,0,0,0,0,0c-0.1,0.1-0.1,0.1-0.2,0.1c0,0-0.1,0-0.2,0c-0.1,0.1,0,0.1-0.1,0
			c-0.1,0-0.1,0-0.2,0c0,0,0,0-0.1,0c0,0-0.2-0.1-0.2-0.1c-0.1,0-0.3-0.1-0.3,0c0,0,0,0,0,0c0,0,0,0,0,0c0,0,0,0,0-0.1
			c-0.1,0-0.1,0.1-0.2,0c0,0.1-0.2,0.1-0.2,0.1c0,0,0-0.1,0-0.1c0,0-0.1,0-0.1,0.1c-0.1-0.1-0.4,0.1-0.5,0c-0.1,0-0.1,0-0.1,0
			c-0.1,0.2,0.2,0.1,0,0.2l-0.1,0.1c0,0,0,0.1,0,0.1c-0.1,0,0.1,0.1,0.1,0.2c-0.1,0-0.1,0,0,0c-0.1,0,0,0.1-0.1,0.1c0,0,0.1,0,0.1,0
			c-0.1,0,0.1,0,0.1,0.1c0.1,0,0.1,0.1,0,0.1c0,0,0,0,0.1,0c0,0,0.2,0,0.1,0c0,0,0,0-0.1,0c0,0,0,0,0,0c0,0,0,0.1,0,0.1
			c0.1,0.1,0,0.2,0.1,0.1c0.1,0-0.1,0.1,0.1,0.1c0,0,0,0,0-0.1c0,0,0,0,0,0.1c0-0.1,0.1,0,0.1,0c0,0,0-0.1,0-0.1c0,0,0,0.1,0,0.1
			c0,0,0.1,0,0.1,0c0,0,0,0.1,0,0.1c0.1,0,0.1,0,0.2,0c0,0,0,0.1,0,0.1c0-0.1,0.1,0,0.2,0c0,0,0.2-0.1,0.2-0.1c0.1,0,0.1,0,0.2,0
			c0-0.1,0.1,0,0.2,0c0-0.1,0-0.1,0,0c0.1-0.1,0.1,0,0.1-0.1c0,0,0,0.1,0,0.1c0.1-0.1,0.2,0,0.2-0.1c0,0.1,0.1,0.1,0.1,0
			c0,0,0,0,0,0.1c0,0,0.1-0.1,0.2-0.1c0,0,0,0,0.1,0l0.3-0.1l0.2-0.2c0,0,0,0,0,0c0,0,0-0.1,0-0.1c0.1,0,0.2,0.1,0.3,0
			c0-0.1-0.1-0.2,0-0.2c-0.1-0.1,0,0,0.1,0c-0.1,0,0,0,0,0c0-0.1,0-0.1,0-0.2c0,0,0.1,0,0.1,0c0-0.1,0,0,0-0.1c0.1,0,0.1,0,0.1-0.1
			c0,0,0.1,0,0.1,0c0,0,0-0.1,0.1-0.1c0,0,0.1-0.2,0-0.2c0-0.1,0.1,0,0.1-0.1c0,0,0,0,0,0c0,0,0,0,0,0c0,0,0,0,0,0c0,0,0,0,0,0
			c0-0.1,0.1-0.2,0-0.3C15.4,26.2,15.3,26.1,15.3,26z"/>
	</g>
	<g>
		<path class="st0" d="M6.9,26.3C6.9,26.3,6.9,26.3,6.9,26.3C6.9,26.3,6.9,26.3,6.9,26.3c0-0.1,0.1-0.2,0-0.3c0,0,0-0.1,0-0.2
			c0,0-0.1,0.1-0.1,0.1c0,0,0,0,0-0.1c0,0.1-0.1,0-0.1,0.1c0,0-0.1-0.1,0,0c-0.1,0-0.2,0-0.2,0.1c0,0-0.1,0-0.1,0c0,0,0-0.1-0.2,0
			c0,0,0.1,0,0,0c-0.1,0-0.1,0-0.1,0c0,0-0.1,0-0.1,0c0,0,0,0.1,0,0c0,0,0,0,0,0c0,0-0.2-0.2-0.2-0.1c0,0,0,0,0-0.1c0,0,0,0,0,0
			c-0.1,0.1-0.1,0.1-0.2,0.1c0,0-0.1,0-0.1,0c-0.1,0.1,0,0.1-0.1,0c-0.1,0-0.1,0-0.1,0c0,0,0,0-0.1,0c0,0-0.2,0-0.2-0.1
			c-0.1,0-0.1-0.1-0.2,0c0,0,0,0,0,0c0,0,0,0,0,0c0,0,0,0,0,0c-0.1,0-0.1,0.1-0.2,0c0,0.1,0,0.1,0,0.1c0,0,0-0.1,0-0.1
			c0,0-0.1,0-0.1,0.1c-0.1-0.1-0.3,0.1-0.4,0c0,0-0.1,0-0.1,0c-0.1,0.2,0.1,0.1,0,0.2l-0.1,0.1c0,0,0,0.2,0,0.2c-0.1,0,0,0.1,0,0.2
			c-0.1,0-0.1,0,0,0c-0.1,0,0,0.1-0.1,0.1c0,0,0.1,0,0.1,0c-0.1,0,0.1,0,0.1,0.1c0.1,0,0.1,0.1,0,0.1c0,0,0,0,0.1,0
			c0,0,0.1,0,0.1,0.1c0,0,0,0-0.1,0c0,0,0.1,0.1,0.1,0.1c0,0,0,0.1,0,0.1c0.1,0.1,0,0.2,0.1,0.1c0.1,0-0.1,0.1,0.1,0.1
			c0,0,0,0,0-0.1c0,0,0,0,0,0.1c0-0.1,0.1,0,0.1,0c0,0,0-0.1,0-0.1c0,0,0,0.1,0,0.1c0,0,0.1,0,0.1,0c0,0,0,0.1,0,0.1
			c0.1,0,0,0,0.1,0c0,0,0,0.1,0,0.1c0-0.1,0.3-0.1,0.3-0.1c0,0,0-0.1,0.1-0.1c0.1,0,0.1,0,0.1,0c0-0.1,0.1,0,0.2,0c0-0.1,0-0.1,0,0
			c0-0.1,0.1,0,0.1-0.1c0,0,0,0.1,0,0.1c0.1-0.1,0.1,0,0.2-0.1c0,0.1,0.1,0.1,0.1,0c0,0,0,0,0,0.1c0,0,0.1-0.1,0.2-0.1
			c0,0,0,0,0.1,0l0.2-0.1c0,0,0-0.1,0-0.1c0,0,0.1,0,0.1,0c0,0,0-0.1,0-0.1c0,0,0.1,0,0.1,0c0.1,0,0,0.1,0,0c0-0.1,0-0.1,0.1-0.1
			c-0.1-0.1,0,0,0.1,0c-0.1,0,0,0,0,0c0-0.1,0-0.1,0-0.1c0,0,0.1,0,0.1,0c0-0.1,0,0,0-0.1c0.1,0,0.1,0,0,0c0,0,0-0.1,0.1-0.1
			c0,0,0-0.1,0.1-0.1c0,0,0.1-0.3,0-0.3C6.9,26.4,7,26.5,6.9,26.3C6.9,26.4,6.8,26.4,6.9,26.3C6.8,26.3,6.9,26.3,6.9,26.3z"/>
	</g>
	<g>
		<path class="st0" d="M43.7,21.1c-5.5-7.7-17,0.3-25.4-1.3c-2-0.4-4.7-1.6-5.7-4.7c-0.9-3,1.5-5.4,2.3-6c1.6-1.4,2.1-3.9-0.6-3.4
			C7.6,7.1,2.3,12.4,0.6,19.1c-2.7,11,4.5,22.3,9.1,26.4c8.8,7.7,22.5,4.5,31.5-2C49.6,37.5,50.1,29.8,43.7,21.1z M42.9,28.2
			c0-0.1,0-0.2,0.1-0.3c0,0,0,0-0.1,0c0.1,0,0-0.1,0.1-0.1c-0.1,0-0.1,0,0,0c0-0.1-0.1-0.2,0-0.1c0-0.1,0-0.1,0-0.2c0,0.1,0,0,0.1,0
			c-0.1-0.1,0.1-0.1,0.1-0.2c0.1,0,0.1-0.1,0.1-0.1c0,0,0-0.1,0,0c0-0.1,0.1-0.2,0.1-0.1c0.1-0.1,0.1-0.1,0.2-0.2c0,0.1,0,0,0,0.1
			c0-0.1,0.1,0,0.2-0.1c0,0,0.2,0.1,0.1,0.1c0.1,0.1,0,0.2,0.1,0.2c-0.1,0,0,0-0.1,0c0.1,0.1,0.1,0.2,0.2,0.2c-0.1,0.1,0,0.1,0,0.2
			c-0.1,0-0.1,0,0,0c-0.1,0.1,0,0.1,0,0.1c0,0,0.1,0,0.1,0c0,0.1,0,0.1,0,0.2c0.1,0,0.1,0.1,0,0.1c0,0-0.1,0.1,0,0.1
			c0,0,0,0.1,0,0.2c0,0,0.1,0.2,0,0.2c0,0.1,0.1,0.1,0,0.2c0.2,0.1-0.1,0.2,0.1,0.3c-0.1,0,0,0-0.1,0.1c0,0,0.1,0,0.1,0
			c-0.1,0,0,0.1-0.1,0.1c0.1,0.1,0.1,0.1,0,0.2c0,0,0.1,0,0.1,0c0,0,0,0,0,0c0,0,0,0,0,0c-0.1,0.1,0,0.1,0,0.3c0,0,0,0,0,0
			c-0.1,0.3,0,0.1,0,0.5c0.1,0.1,0.1,0.3,0,0.3c0,0.1,0,0.2,0,0.2c0.1,0.1,0.1,0.2,0.1,0.4c0,0,0,0-0.1,0c0,0,0,0,0.1,0
			c-0.1,0,0,0.2,0,0.2c0,0-0.1,0-0.1,0c0,0,0.1,0,0.1,0c0,0,0,0.1,0,0.1c0,0,0-0.1,0-0.1c0,0.1,0,0.1,0,0.2c0,0,0.1,0,0.1,0
			c-0.1,0-0.1,0-0.1,0c-0.1,0.2,0.2,0.1,0,0.3l0,0.1c0,0,0,0.1,0.1,0.1c-0.1,0-0.1,0.1,0,0.2c-0.1,0-0.1,0,0,0c-0.1,0,0,0.1-0.1,0.1
			c0,0,0.1,0,0.1,0c-0.1,0.1,0,0.2-0.1,0.2c0.1,0,0.1,0.1,0,0.1c0,0,0,0,0.1,0c0,0-0.1,0.1-0.1,0.2c0,0,0.1,0.2,0,0.2
			c0,0.1,0.1,0.2,0,0.2c0.2,0.1-0.1,0.2,0.1,0.3c-0.1,0,0,0-0.1,0.1c0,0,0.1,0,0.1,0c-0.1,0,0,0.1-0.1,0.1c0.1,0.2,0.1,0.1,0,0.2
			c0,0,0.1,0,0.1,0c0,0,0,0,0,0c0,0,0,0,0,0c-0.1,0.1,0,0.2,0,0.2c0,0,0,0,0,0c-0.1,0.3,0,0.3-0.1,0.6c0,0.1,0.1,0.2,0,0.3
			c0,0.1,0,0.2,0,0.2c0.1,0.1,0,0.2,0,0.4c0,0,0-0.1-0.1,0c0,0,0,0,0.1,0c-0.1,0,0,0.1,0,0.1c0,0-0.1,0-0.1,0c0,0-0.1,0,0,0
			c0,0,0,0,0,0c0,0,0,0-0.1,0c0,0.1-0.2,0.1-0.3,0.1c0,0,0,0.1,0,0.1c0-0.1,0-0.1,0-0.1c-0.3,0-0.2,0.2-0.3,0.1h0l-0.1,0l-0.1,0l0,0
			l-0.1-0.1l0,0l-0.1,0c0,0-0.1-0.1,0-0.1c0,0,0-0.2,0-0.2c0,0,0,0,0.1,0c0.1-0.2,0-0.2,0-0.3c0,0,0.1-0.1,0-0.2
			c0.1-0.1,0.1-0.2,0.1-0.3c0.1-0.4-0.1-0.3,0.1-0.6c0,0,0,0,0,0c0.1-0.1,0-0.2,0-0.2c0,0,0,0,0,0c0,0,0,0,0,0c0,0,0,0-0.1,0
			c0.1-0.1,0-0.1,0-0.2c0.1,0,0-0.1,0.1-0.1c0,0-0.1,0-0.1,0c0,0,0-0.1,0.1-0.1c-0.1-0.1,0.1-0.2-0.1-0.3c0.1-0.1,0-0.1,0-0.2
			c0,0,0-0.2,0-0.2c0-0.1,0.1-0.2,0.1-0.2c0,0-0.1,0-0.1,0c0.1,0,0-0.1,0-0.1c0.1-0.1,0-0.2,0.1-0.2c0,0,0,0-0.1,0
			c0.1,0,0-0.1,0.1-0.1c-0.1,0-0.1-0.1,0,0c0-0.1-0.1-0.2,0-0.2c-0.1-0.1-0.1-0.2-0.1-0.3c0-0.1,0-0.1-0.1-0.2c0,0,0-0.1,0.1-0.1
			c0,0-0.1,0-0.1,0c0-0.1,0-0.3,0-0.3c0,0,0-0.1,0-0.1c0,0,0,0,0.1,0c0,0,0,0-0.1,0c0,0,0.1,0,0.1,0c0,0-0.1-0.1,0-0.1
			c0,0-0.1,0-0.1,0c0,0,0,0,0.1,0c0-0.2,0-0.1,0-0.2c0,0,0-0.1-0.1-0.2c0.1-0.1,0.1-0.2,0-0.3c0-0.4-0.1-0.3,0-0.6c0,0,0,0,0,0
			c0-0.1-0.1-0.2,0-0.3c0,0,0,0,0,0c0,0,0,0,0,0c0,0,0,0-0.1,0c0-0.1,0.1-0.1,0-0.2c0.1,0,0-0.1,0.1-0.1c0,0-0.1,0-0.1,0
			c0,0,0-0.1,0.1-0.1c-0.2-0.1,0.1-0.2-0.1-0.3c0.1-0.1,0-0.1,0-0.2c0,0,0.1-0.2,0-0.2C43,28.4,42.9,28.3,42.9,28.2
			C42.9,28.2,42.9,28.3,42.9,28.2C43,28.3,43,28.2,42.9,28.2z M9,25c0.1,0.1,0,0.1-0.1,0.2c0,0,0.1,0,0.1,0c0,0,0,0,0,0c0,0,0,0,0,0
			c-0.1,0.1,0,0.2,0,0.3c0,0,0,0,0,0c0,0.1,0,0.1,0,0.1c0,0,0,0.1,0,0.1c0,0.1,0,0.2-0.1,0.2c0,0,0,0.2,0,0.2c0,0,0,0,0,0
			c-0.1,0,0,0,0,0.1c0,0-0.1,0-0.1,0c0.1,0.1-0.1,0.2,0,0.3c0,0,0,0-0.1,0c0,0,0,0.1,0,0.1c0,0,0,0,0.1,0c-0.1,0.1,0,0.1-0.1,0.1
			c0,0,0.1-0.1,0.1,0.1c-0.1,0-0.1,0-0.1,0C8.7,26.9,8.5,27,8.5,27c0,0,0,0.1,0,0.1c0,0-0.1,0,0,0.1c0,0.1-0.1,0.2-0.1,0.3
			c-0.1,0-0.1,0-0.1,0c0,0.1,0,0.2-0.1,0.2c0,0.1,0,0.2-0.1,0.3c0,0,0,0-0.1,0c0,0,0,0.1,0,0.1c-0.1,0,0,0.1-0.2,0.2
			c0,0-0.2,0.1-0.2,0.1c0,0,0,0,0,0.1c-0.1,0-0.1,0.1-0.1,0c0,0.1-0.1,0,0,0.1c0,0-0.1,0-0.1,0.1c-0.1,0,0,0-0.1,0
			c0,0.1-0.1,0.1-0.2,0.1c0,0,0,0,0,0c0,0,0,0,0,0c0,0,0,0,0,0s-0.1-0.1,0,0c0,0-0.1,0.3-0.1,0.2c0,0-0.1,0.1-0.1,0c0,0,0,0.1,0,0.1
			c0,0.1,0,0-0.1,0c0,0-0.1,0.1-0.1,0.1c0,0,0,0-0.1,0c0,0,0,0-0.1,0c0,0,0,0.1,0,0.1c0,0,0,0-0.1,0c0,0,0,0,0,0c0,0,0,0,0.1,0
			c0,0.1-0.1,0-0.2,0.1c0-0.1,0,0,0-0.1c0,0,0,0,0,0v0.1c0,0.1,0,0,0,0.1c0,0,0-0.1,0-0.1c0,0-0.1,0,0,0.1c-0.1-0.1-0.2,0.1-0.3,0
			c-0.1,0.1-0.1,0-0.2,0c0,0-0.2,0-0.2,0c-0.1,0-0.2,0.1-0.2,0.1c0,0,0-0.1,0-0.1c0,0.1,0,0-0.1,0c-0.1,0.1-0.2,0.1-0.2,0.1
			c0,0.1-0.1,0.1-0.1,0c-0.1,0-0.1-0.1-0.1,0c0,0-0.1,0-0.1-0.1l-0.1,0c-0.1,0.1,0-0.1-0.2,0c0,0,0,0,0,0.1c0,0,0-0.1,0-0.1
			c-0.1,0-0.2-0.1-0.2-0.1c0,0,0,0,0,0c0,0,0,0-0.1,0c0,0,0,0.1,0,0.1c0,0-0.1,0-0.1,0c0,0,0,0-0.1-0.1c0,0,0,0.1,0,0.1
			c0,0-0.2-0.2-0.2-0.2c0,0,0,0,0-0.1c0,0,0,0,0,0.1c-0.1,0,0,0.1-0.1,0.1c0,0,0,0,0,0c0,0-0.1,0-0.1,0l-0.1-0.2c0,0-0.1,0-0.1,0
			c0,0,0,0-0.1,0c0,0-0.1,0-0.1,0c0,0,0,0,0,0c0,0,0,0,0,0c0,0-0.1,0-0.1,0c0,0,0,0,0.1,0c0-0.1,0,0-0.1,0c0,0-0.1,0-0.1,0.1
			c0,0-0.1-0.1-0.1-0.1c-0.1-0.2-0.2,0.1-0.1-0.1l-0.1-0.1c0,0-0.1,0-0.1,0c0-0.1,0,0-0.1,0c0.1,0,0,0,0,0c0-0.1-0.1-0.1,0-0.1
			c0,0,0,0-0.1,0c0-0.1,0-0.1,0-0.2c0,0,0,0,0,0c0,0,0,0,0,0c0,0,0.1,0,0.1,0c0-0.1,0-0.1-0.1-0.1c0,0-0.1-0.1-0.1-0.1
			c0.1-0.1-0.1-0.1,0-0.1c0,0,0-0.2-0.1-0.2c0-0.1-0.1-0.1,0-0.1c0,0,0-0.1,0-0.2c0.1,0,0,0,0-0.1c0.1-0.1-0.1-0.1-0.1-0.1
			c0,0,0,0-0.1,0c0.1,0,0-0.1,0.1-0.1c0,0-0.1-0.1,0,0c0-0.1-0.2-0.1-0.1-0.1c0-0.1,0.1-0.1,0.1-0.1c0-0.1,0-0.1,0-0.2
			c0,0,0-0.1,0.1-0.1c0,0-0.1,0-0.1,0c0-0.1,0-0.1,0.1-0.2c0,0,0-0.1,0-0.1c0,0,0-0.3,0.1-0.3c0,0,0,0-0.1-0.1c0,0,0.1,0,0.1,0
			c0,0-0.1-0.1,0-0.1c0,0,0,0-0.1,0c0,0,0,0,0,0c0-0.1,0,0-0.1-0.1c0,0,0.1-0.1,0.1-0.2c0.1-0.1,0,0-0.1-0.1c0-0.3,0,0.1,0.1-0.2
			c0,0,0,0,0,0c0-0.1-0.1-0.2,0-0.2c0,0,0,0,0,0c0,0,0,0,0,0c0,0,0,0,0,0c0-0.1,0.1-0.1,0-0.2c0.1,0,0-0.1,0.1-0.1c0,0-0.1,0-0.1,0
			c0,0,0,0,0.1-0.1c-0.1-0.1,0.1-0.2-0.1-0.3c0.1-0.1,0-0.1,0-0.2c0,0,0-0.2,0-0.2c0-0.1,0-0.1,0-0.1c0,0,0,0,0-0.1
			c0.1,0,0.1,0,0-0.1c0-0.1,0-0.2,0-0.2c0,0,0,0-0.1,0c0.1,0-0.1-0.1,0-0.1c0,0-0.1,0,0,0c0-0.1-0.1-0.1,0-0.1c0-0.1,0-0.1,0-0.2
			c0,0,0,0,0.1,0c-0.1-0.1,0-0.1,0-0.2c-0.2,0,0.1-0.1,0-0.2c0.1,0,0,0,0-0.1c0,0,0.1-0.2,0.1-0.2c0.1,0.1,0.1-0.1,0.1,0
			c0,0,0.2-0.1,0.1-0.1c0.1,0,0.1,0,0.1,0c0,0-0.1-0.1,0,0c0,0,0.1,0,0.1,0c0,0,0,0,0,0c0-0.1,0.1-0.1,0.1,0c0.1-0.1,0.1,0,0.1,0
			c0,0,0,0,0,0.1c0-0.1,0.1,0.2,0.2,0.1c0,0,0.2,0.1,0.1,0.1c0.1,0.1,0.1,0,0.2,0c-0.1,0,0,0-0.1,0c0,0.1,0.1,0,0.2,0.1
			c-0.1,0,0.1,0.1,0.1,0.2c-0.1,0,0,0,0,0c-0.1,0.1,0.1,0.1,0,0.1c0,0,0.1,0,0.1,0c0,0.1,0.1,0.1,0.1,0.2c0.1,0,0.1,0.1,0,0.1
			c0,0-0.1,0.1,0,0.1c0,0,0,0.1,0,0.1c0,0,0.1,0.1,0,0.1c0,0.1,0.1,0.1,0,0.2c0.1,0.1,0,0.1,0,0.2c0,0,0.1,0,0.1,0
			c0,0.1,0.1,0.1,0.2,0.1c0,0.1,0,0.1,0,0c0,0.1,0.1,0,0.1,0.1c0,0,0-0.1,0-0.1c0,0.1,0.1-0.1,0.1,0c0-0.1,0.1-0.1,0.1,0
			c0,0,0,0.1,0.1,0c0,0,0-0.1,0.1-0.1c0,0,0.1,0,0.1,0c0,0,0.1,0,0.1,0c0,0,0,0,0.1,0c0,0,0,0.1,0,0.1c0,0,0,0,0,0c0,0,0,0,0,0
			c0.1-0.1,0.1,0,0.2,0c0,0,0,0,0,0c0.1,0,0,0,0.2,0c0.1,0.1,0.1,0,0.1,0c0,0,0.2,0,0.2,0c0.1,0.1,0,0.1,0.1,0c0,0,0,0,0,0
			c0,0,0,0,0,0.1c0-0.1,0,0,0.1,0c0,0,0-0.1,0-0.1c0,0,0,0.1,0.1,0.1c0,0,0.1,0,0.1,0c0,0,0.1,0,0.1,0c0.1,0,0,0,0.1,0
			c0,0,0,0,0.1,0c0-0.1,0.1-0.1,0.2,0c0-0.1,0,0,0.1,0c0-0.1,0-0.1,0.1-0.1c0-0.1,0.1,0,0.2-0.1c0,0,0,0.1,0,0.1
			c0-0.1,0.1-0.1,0.1-0.2c0,0,0,0,0,0c0,0,0-0.1,0-0.1c0,0,0.1-0.2,0-0.2c0-0.1,0-0.1,0-0.1c0,0,0,0,0-0.1c0.1,0,0.1,0,0-0.1
			c0-0.1,0-0.2,0-0.2c0,0,0,0-0.1,0c0.1,0,0-0.1,0.1-0.1c0,0-0.1,0,0,0C7,23.1,6.9,23,7,23c0-0.1-0.1-0.1-0.1-0.2c0,0,0,0,0.1,0
			c-0.1-0.1,0,0,0-0.1l0,0c0,0,0,0,0,0c0,0,0,0,0,0c0.1,0,0-0.1,0-0.1c0,0-0.1-0.1,0,0c0-0.1,0.1-0.2,0.2-0.1c0.1-0.1,0.1,0,0.2-0.1
			c0,0,0,0,0,0.1c0-0.1,0.1,0,0.2,0c0,0,0.2,0,0.1,0c0,0,0,0,0,0c0,0,0,0,0,0c0,0,0.1,0,0.1,0c0,0,0.1,0.1,0.1,0.1
			c0,0,0.1,0.1,0.1,0.1c0.1,0,0,0.2,0.1,0.1c0,0,0,0.1,0,0.1c0.1,0,0.2,0.1,0.2,0.1c0.1,0.1,0,0,0.1,0.1c-0.1,0,0.1,0.2,0,0.2
			c0,0.1,0.1,0.1,0.2,0.2c-0.1,0.1,0,0.1,0,0.1c-0.1,0,0,0,0,0c-0.1,0.1,0.1,0.1,0,0.2c0,0,0.1,0,0.1,0c0,0.1,0.1,0.1,0,0.2
			c0.1,0,0.1,0.1,0,0.1c0,0-0.1,0.1,0,0.2c0,0,0.1,0,0.1,0.1c0,0,0.1,0.1,0,0.1c0,0.1,0.1,0.1,0,0.2c0.2,0.1,0,0.2,0.1,0.3
			c-0.1,0,0,0-0.1,0.1c0,0,0.1,0,0.1,0C8.9,24.9,9,25,9,25z M15.4,28.8C15.4,28.9,15.4,28.9,15.4,28.8
			C15.4,28.9,15.3,28.8,15.4,28.8c-0.1,0-0.1,0.3-0.2,0.2c0,0-0.1,0.1-0.1,0c0,0,0,0.1,0,0.1c0,0.1,0,0-0.1,0.1c0,0-0.1,0.1-0.1,0.1
			c0,0-0.1,0-0.1,0c0,0,0,0-0.1,0c0,0,0,0.1,0,0.1c0,0,0,0,0,0c-0.1-0.1-0.1,0-0.1,0c0,0,0,0.1,0,0.1c0,0,0,0,0-0.1c0,0-0.1,0-0.1,0
			c0,0,0,0,0,0c0,0,0,0,0.1,0c0,0.1-0.1,0-0.2,0.1c0-0.1,0-0.1,0-0.1c0,0,0,0,0,0v0.1c0,0.1-0.1,0-0.1,0.1c0,0,0-0.1,0-0.1
			c0,0-0.1,0-0.1,0.1c-0.1-0.1-0.2,0.1-0.3,0c-0.1,0.1-0.1,0-0.2,0c0,0-0.2,0-0.2,0c-0.1,0-0.2,0.1-0.2,0.1c0,0,0-0.1,0-0.1
			c0,0.1,0,0-0.1,0c-0.1,0.1-0.2,0.1-0.2,0.1c0,0,0,0,0-0.1c0,0.1-0.1,0-0.1,0.1c0,0-0.1-0.1,0,0c-0.1,0-0.2-0.1-0.2,0
			c0,0-0.1,0-0.1-0.1l-0.1,0c-0.1,0.1,0-0.1-0.3,0c0,0,0,0,0,0.1c0,0,0-0.1,0-0.1c-0.1,0-0.1,0-0.2-0.1c0,0-0.1,0-0.1,0
			c0,0,0,0-0.1-0.1c0,0,0,0.1,0,0.1c0,0-0.2-0.2-0.3-0.2c0,0,0-0.1,0-0.1c0,0,0,0,0,0.1c-0.2,0-0.2,0.1-0.3,0.1c0,0,0,0,0,0
			c0,0-0.1,0-0.1,0l0-0.1c0,0-0.1,0-0.1,0c0,0,0,0-0.1,0c0-0.1-0.1,0-0.1,0c0,0,0,0,0,0c0,0,0,0,0,0c0,0-0.1,0-0.1,0c0,0,0,0,0.1,0
			c0-0.1,0,0-0.1,0c0,0-0.1,0-0.1,0.1c0,0-0.1-0.1-0.1-0.1C10,29.1,10,29.4,10,29.3l-0.1-0.1c0,0-0.1,0-0.1,0c0-0.1,0,0-0.1-0.1
			c0.1,0,0,0,0,0c0-0.1-0.1-0.1,0-0.1c0,0-0.1,0-0.1,0c0-0.1,0-0.1,0-0.2c0,0,0.1,0,0.1-0.1c0-0.1,0-0.1-0.1-0.1
			c0,0-0.1-0.1-0.1-0.1c0.1-0.1-0.1-0.1,0-0.1c0,0,0-0.2-0.1-0.2c0-0.1-0.1-0.2,0-0.1c0,0,0-0.1,0.1-0.2c0.1,0,0,0,0-0.1
			c0.1-0.1-0.1-0.1-0.1-0.1c0,0,0,0-0.1,0c0.1,0,0-0.1,0.1-0.1c0,0-0.1-0.1,0,0c0-0.1-0.2-0.1-0.1-0.1c-0.1-0.1,0.1-0.1,0.1-0.1
			c0-0.1,0-0.1,0-0.2c0,0,0-0.1,0.1-0.1c0,0-0.1,0-0.1,0c0-0.1,0-0.2,0.1-0.2c0,0,0-0.1,0-0.1c0,0,0-0.2,0.1-0.2c0,0,0,0-0.1-0.1
			c0,0,0.1,0,0.1,0c0,0-0.1-0.1,0-0.1c0,0,0,0-0.1,0c0,0,0,0,0.1,0c0-0.1,0,0-0.1-0.1c0,0,0.1-0.1,0.1-0.2c0.1-0.1,0,0-0.1-0.1
			c0-0.3,0,0.1,0.1-0.2c0,0,0,0,0,0c0-0.1-0.1-0.2,0-0.2c0,0,0,0,0,0c0,0,0,0,0,0c0,0,0,0-0.1,0c0-0.1,0.1-0.1,0-0.2
			c0.1,0,0-0.1,0.1-0.1c0,0-0.1,0-0.1,0c0,0,0-0.1,0.1-0.1c-0.1-0.1,0.1-0.2-0.1-0.3c0.1-0.1,0-0.1,0-0.2c0,0,0-0.2-0.1-0.2
			c0-0.1,0-0.1,0-0.1c0,0,0,0,0-0.1c0.1,0,0.1,0,0-0.1c0-0.1,0-0.2,0-0.2c0,0,0,0-0.1,0c0.1,0-0.1-0.1,0-0.1c0,0-0.1,0,0,0
			c0-0.1-0.2-0.2-0.1-0.1c0-0.1,0-0.1,0-0.2c0,0.1,0,0,0.1,0c-0.1-0.1,0-0.1,0-0.2c-0.2,0,0.2-0.2,0-0.2c0.1,0,0-0.1,0-0.1
			c0,0,0.1-0.2,0.1-0.2c0.1,0.1,0.1-0.1,0.1,0c0,0,0.2-0.1,0.2-0.1c0.1,0,0.2,0,0.1,0c0,0-0.1-0.1,0,0c0,0,0.1,0,0.1,0c0,0,0,0,0,0
			c0-0.1,0.1-0.1,0.2,0c0.1-0.1,0.1,0,0.1,0c0,0,0,0,0,0.1c0-0.1,0.1,0.2,0.2,0.1c0,0,0.2,0.1,0.1,0.1c0.1,0.1,0.1,0,0.2,0
			c-0.1,0,0,0-0.1,0c0,0.1,0.1,0,0.2,0.1C10.8,22.9,11,23,11,23.1c-0.1,0,0,0,0,0c-0.1,0.1,0.1,0.1,0,0.1c0,0,0.1,0,0.1,0
			c0,0.1,0.1,0.1,0.1,0.2c0.1,0,0.1,0.1,0,0.1c0,0-0.1,0.1,0,0.1c0,0,0,0.1,0,0.2c0,0,0.1,0.1,0,0.1c0,0.1,0.1,0.1,0,0.2
			c0.1,0.1,0,0.2,0,0.2c0,0,0.1,0,0.1,0c0,0.1,0.1,0.1,0.2,0.1c-0.1,0.1,0,0.1,0,0c0,0.1,0.1,0,0.1,0.1c0,0,0-0.1,0-0.1
			c0,0.1,0.1-0.1,0.1,0c0-0.1,0.1-0.1,0.1,0c0,0,0,0.1,0.1,0.1c0,0,0.2-0.1,0.2-0.1c0,0,0.2,0,0.2,0c0,0,0.1,0,0.1,0c0,0,0,0,0.1,0
			c0,0,0,0.1,0,0.1c0,0,0,0,0,0c0,0,0,0,0,0c0.1-0.1,0.1,0.1,0.2,0c0,0,0,0,0,0c0.3,0-0.1,0,0.3,0c0.1,0.1,0,0,0-0.1
			c0.1,0,0.2,0,0.2-0.1c0.1,0.1,0,0.1,0.1,0.1c0,0-0.1,0,0-0.1c0,0,0,0,0,0.1c0-0.1,0.1,0,0.1,0c0,0,0-0.1,0-0.1c0,0,0,0.1,0.1,0.1
			c0,0,0.1-0.1,0.1-0.1c0,0,0.1,0,0.1,0c0.1,0,0,0,0.1,0c0,0,0.2,0,0.2,0c0-0.1,0.1,0,0.1-0.1c0.1,0,0.1,0,0.2,0
			c0.1,0,0,0.1,0.1,0.1c0-0.1,0,0,0.1,0c0-0.1,0.1-0.1,0.1-0.1c0-0.1,0.2,0,0.2-0.1c0,0,0,0.1,0,0.1c0-0.1,0.1-0.1,0.1-0.2
			c0,0,0,0,0,0c0,0,0-0.1,0-0.1c0,0,0.1-0.2,0-0.2c0-0.1,0-0.1,0-0.1c0,0,0,0,0-0.1c0.1,0,0.1,0,0-0.1c0-0.1,0-0.2,0-0.2
			c0,0,0,0-0.1,0c0.1,0,0-0.1,0.1-0.1c0,0-0.1,0,0,0c0-0.1-0.2-0.1-0.1-0.1c0-0.1-0.1-0.1-0.1-0.2c0,0,0,0,0.1,0c-0.1-0.1,0,0,0-0.1
			l0,0c0,0,0,0,0,0c0,0,0,0,0,0c0.1,0,0-0.1,0-0.1c0,0-0.1-0.1,0,0c0-0.1,0.2-0.2,0.3-0.1c0.1-0.1,0.1,0,0.2-0.1c0,0,0,0,0,0.1
			c0-0.1,0.1,0,0.2-0.1c0,0,0.2,0,0.1,0.1c0,0,0,0,0,0c0,0,0,0,0,0c0,0,0.1,0,0.1,0c0,0,0.1,0,0.1,0c0,0,0.1,0.1,0.1,0.1
			c0.1,0,0,0.2,0.1,0.1c0,0,0,0.1,0,0.1c0.1,0,0.2,0.1,0.2,0.1c0.1,0.1,0,0,0.1,0.1c-0.1,0,0.1,0.2,0,0.2c0,0.1,0.1,0.1,0.2,0.2
			c-0.1,0.1,0,0.1,0,0.2c-0.1,0,0,0,0,0c-0.1,0.1,0.1,0.1,0,0.2c0,0,0.1,0,0.1,0c0,0.1,0.1,0.1,0,0.2c0.1,0,0.1,0.1,0,0.1
			c0,0-0.1,0.2,0,0.2c0,0,0.1,0,0.1,0.1c0,0,0.1,0.1,0,0.1c0,0.1,0.1,0.1,0,0.2c0.2,0.1,0,0.2,0.1,0.3c-0.1,0,0,0-0.1,0.1
			c0,0,0.1,0,0.1,0c-0.1,0,0,0.1-0.1,0.1c0.1,0.1,0,0.1,0,0.2c0,0,0.1,0,0.1,0c0,0,0,0,0,0c0,0,0,0,0,0c-0.1,0.1,0,0.2,0,0.3
			c0,0,0,0,0,0c0,0.1,0,0.1,0,0.1c0,0,0,0.1,0,0.1c0.1,0.1,0,0.2-0.1,0.2c0,0,0,0.2,0,0.2c0,0,0,0,0,0c-0.1,0,0,0,0,0.1
			c0,0-0.1,0-0.1,0c0.1,0.1-0.1,0.2,0,0.3c0,0,0,0-0.1,0c0,0.1,0,0.1-0.1,0.1c0,0,0,0,0.1,0c-0.1,0.1,0,0.1-0.1,0.1
			c0,0,0.1-0.1,0.1,0.1c-0.1-0.1-0.1,0-0.1,0c0.1,0.1-0.1,0.1-0.1,0.2c0,0,0,0.1,0,0.1c0,0-0.1,0,0,0.1c-0.1,0.1-0.1,0.1-0.1,0.2
			c-0.1,0-0.1,0-0.1,0c0,0.1,0,0.2-0.1,0.2c0,0.1-0.1,0.2-0.1,0.3c0,0,0,0-0.1,0c0,0,0,0.1,0,0.1c-0.1,0,0,0.2-0.2,0.2
			c0,0-0.2,0.1-0.2,0.1c0,0,0,0,0,0.1c-0.1,0-0.1,0.1-0.1,0c0,0.1-0.1,0.1,0,0.1c0,0-0.1,0-0.1,0.1c-0.1,0,0,0-0.1,0
			C15.6,28.9,15.6,28.9,15.4,28.8C15.5,28.8,15.4,28.8,15.4,28.8C15.4,28.9,15.4,28.9,15.4,28.8z M20,39.6c0,0.1,0,0.1,0,0.2
			c-0.1,0-0.2,0.1-0.2,0.1c0,0,0-0.1,0-0.1c0,0.1,0,0.1-0.1,0c-0.1,0.1,0,0.1-0.1,0.2c0,0,0,0,0-0.1c0,0.1-0.1,0-0.1,0.1
			c0,0-0.1-0.1,0,0c-0.1,0-0.2-0.1-0.2,0c0,0-0.1,0-0.1,0l-0.3,0c-0.1,0.1,0,0-0.3,0.1c0,0-0.1,0-0.1,0c-0.1,0-0.1,0-0.1,0
			c0,0-0.1,0-0.1,0c0,0,0,0.1,0,0c0,0,0,0,0,0c0,0-0.2,0-0.2,0c0,0,0,0,0-0.1c0,0,0,0,0,0c-0.1,0.1-0.1,0.1-0.2,0
			c0,0-0.1-0.1-0.2-0.1c-0.1,0.1,0,0.1-0.1,0c-0.3,0,0.2,0-0.1,0.1c0,0,0,0,0,0c-0.1,0-0.2-0.1-0.3,0c0,0,0,0,0,0c0,0,0,0,0,0
			c0,0,0,0,0-0.1c-0.1,0-0.1,0.1-0.2,0c0,0.1-0.1,0-0.1,0.1c0,0,0-0.1,0-0.1c0,0-0.1,0-0.1,0.1c-0.1-0.1-0.2,0.1-0.3-0.1
			c-0.1,0.1,0,0-0.1,0l0-0.1l0,0c0.1-0.3-0.1-0.1,0-0.4c0,0,0,0,0,0c0-0.1-0.1-0.2,0-0.3c0,0,0,0,0,0c0,0,0,0,0,0c0,0,0,0-0.1,0
			c0-0.1,0.1-0.1,0-0.2c0.1,0,0-0.1,0.1-0.1c0,0-0.1,0-0.1,0c0,0,0-0.1,0.1-0.1c-0.2-0.1,0.1-0.2-0.1-0.3c0.1-0.1,0-0.1,0-0.2
			c0,0,0-0.2,0-0.2c0-0.1,0-0.1,0-0.1c0,0,0-0.1,0-0.1c0.1,0,0.1-0.1,0-0.1c0-0.1,0-0.2,0.1-0.2c0,0,0,0-0.1,0c0.1,0-0.1-0.1,0-0.2
			c-0.1,0-0.1,0,0,0c0-0.1-0.1-0.2,0-0.2c0-0.1,0,0,0-0.1c0,0,0.1-0.1,0.1,0c0,0,0.1-0.1,0.1-0.1c0.1,0,0.1,0,0.1,0c0,0,0-0.1,0-0.1
			c0,0,0.1,0,0.1-0.1c0.1,0,0.2,0,0.2,0c0,0,0-0.1,0-0.1c0.1,0,0.1,0,0.1,0c0,0,0-0.1,0,0c0-0.1,0.1-0.2,0.1-0.1
			c0.1-0.1,0.1-0.1,0.1-0.1c0-0.1,0.1,0,0.2-0.1c0.1,0.1,0.1,0,0.1,0c0-0.1,0-0.1,0,0c0.1-0.1,0.2-0.2,0.2-0.1c0,0,0.1,0.1,0.1,0
			c0,0,0-0.1,0,0c0,0,0.1,0.1,0.1,0c0.1,0,0,0,0.1,0c0,0,0.1,0,0.1,0c0.2,0,0.2,0,0.2,0l0.1-0.1c0,0,0-0.1,0-0.1c-0.1,0,0-0.1,0-0.2
			c-0.1,0-0.1,0,0,0c-0.1-0.1,0-0.1-0.1-0.1c0,0,0.1,0,0.1,0c0-0.1-0.1-0.2-0.1-0.3c0.1,0,0.1-0.1,0-0.1c0,0,0,0,0.1,0
			c0,0-0.3-0.3-0.3-0.4c0,0,0,0,0,0c-0.1-0.1-0.1-0.1-0.1-0.2c0,0,0,0,0,0c0,0,0,0,0,0c0,0,0,0,0,0c-0.1-0.1,0-0.1-0.2,0
			c0-0.1-0.1,0-0.1-0.1c0,0,0,0-0.1,0.1c0,0-0.1,0,0-0.1c-0.1,0.1-0.2-0.1-0.3,0c-0.1-0.1-0.2,0.1-0.3,0c0,0-0.2,0-0.2,0
			c-0.1,0-0.2-0.1-0.2-0.2c0,0,0,0.1,0,0.1c0-0.1,0-0.1-0.1,0c-0.1-0.1-0.2-0.1-0.2-0.1c0,0,0,0,0,0.1c0-0.1-0.1,0.1-0.1,0
			c0,0-0.1,0.1,0,0c-0.1,0-0.2,0-0.2-0.1c-0.1,0-0.2,0-0.3-0.1c0.1,0,0,0,0.1,0c-0.1,0,0-0.1-0.1-0.2c0-0.1,0-0.1,0.1-0.2
			c0,0,0,0,0,0c0,0,0,0,0.1,0c-0.1,0,0.1-0.1,0.1-0.2c0.1,0,0,0.1,0.1,0.1c0,0,0,0,0,0c0.1,0,0,0,0.1,0c0,0,0-0.1,0-0.1
			c0,0,0,0,0.1,0c0,0,0.1,0,0.1-0.1c0,0,0,0,0.1,0c0,0,0,0,0,0c0.1,0,0.1,0,0.2-0.1c0,0,0.2,0,0.2,0c0,0,0,0,0,0c0.1,0,0.1,0,0.2,0
			c0.1,0,0.2,0,0.2,0.1c0.1,0,0.1,0,0.1,0c0,0,0,0,0-0.1c0,0.1,0,0,0.1,0c0,0,0,0.1,0,0.1c0.1-0.1,0.2,0.1,0.3,0c0,0,0,0,0,0.1
			c0,0,0.1,0,0.1,0.1c0,0,0,0,0-0.1c0.1,0.1,0.1,0,0.1,0.1c0,0-0.1-0.1,0.1-0.1c-0.1,0.1,0,0.1,0,0.1c0.1-0.1,0.1,0.1,0.2,0.1
			c0,0,0.1,0,0.1,0c0,0,0,0.1,0.1,0c0.1,0.1,0.1,0.1,0.2,0.1c0,0.1,0,0.1,0,0.1c0.1,0,0.2,0,0.2,0.1c0.1,0,0.2,0.1,0.3,0.1
			c0,0,0,0,0,0.1c0,0,0.1,0,0.1,0c0,0.1,0.2,0,0.2,0.2c0,0,0.1,0.2,0.1,0.2c0,0,0,0,0.1,0c0,0.1,0.1,0.1,0,0.1c0.1,0,0.1,0.1,0.1,0
			c0,0,0,0.1,0.1,0.1c0,0.1,0,0,0,0.1c0.1,0,0.1,0.1,0.1,0.2c-0.1,0,0,0,0,0c0,0,0,0,0,0c0,0,0,0,0,0s-0.1,0.1,0,0
			c0,0,0.1,0.1,0.1,0.1c0,0,0.1,0.1,0,0.1c0,0,0.1,0,0.1,0c0.1,0,0,0,0,0.1c0,0,0,0.1,0,0.1c0,0,0,0.1-0.1,0.1c0,0,0,0,0,0.1
			c0,0,0.1,0,0.1,0c0,0,0,0,0,0c-0.1,0.1,0,0.1,0,0.1c0,0,0.1,0,0.1,0c0,0,0,0-0.1,0c0,0,0,0.1,0,0.1c0,0,0,0,0,0c0,0,0,0,0-0.1
			c0.1,0,0,0.1,0.1,0.2c-0.1,0-0.1,0-0.1,0c0,0,0.1,0,0,0.1c0,0.1-0.1,0,0,0.1c0,0,0.1,0,0.1,0c0,0-0.1,0-0.1,0.1c0,0,0,0.1-0.1,0.1
			c0,0,0,0,0,0c0,0,0,0,0,0c0,0,0,0-0.1,0c0,0,0,0.1,0,0.1c0.1,0-0.1,0.1-0.1,0.1c-0.1,0-0.1,0-0.2,0c0,0.1-0.1,0.1-0.1,0.1
			c0,0-0.1,0,0,0c0,0.1-0.1,0-0.1,0c0,0,0,0,0,0c0,0,0,0,0,0l0,0c-0.1,0.1,0,0-0.2,0c-0.2-0.1,0,0-0.3,0c0,0-0.1,0-0.1,0
			c0,0,0,0-0.1,0.1c-0.1,0-0.1,0-0.1,0c0,0,0,0-0.1,0c0,0,0,0,0,0c0,0,0,0.1-0.1,0.1c0,0.1,0,0.1,0,0.3c-0.1,0-0.1,0-0.1,0.1
			c-0.1-0.1-0.1,0,0,0c-0.1,0,0,0.1-0.1,0.1c0,0,0.1,0,0.1,0c-0.1,0.1,0,0.1-0.1,0.2c0.1,0,0.1,0.1,0,0.1c0,0-0.1,0,0,0.1
			c0,0,0.1,0.1,0,0.2c0,0,0,0.2,0,0.2c0,0.1,0.1,0,0.1,0.1c0,0.1,0,0.1,0,0.1c0.1,0.1-0.1,0.2,0,0.2c0.1,0,0.2,0,0.2-0.1
			c0.1,0.1,0,0.1,0.1,0.1c0,0,0,0,0-0.1c0,0,0,0,0,0.1c0-0.1,0.1,0,0.1,0c0,0,0-0.1,0-0.1c0,0,0,0.1,0,0.1c0,0,0.1,0,0.1-0.1
			c0,0,0.1,0,0.1,0c0.1,0,0,0,0.1,0c0,0,0,0.1,0,0.1c0-0.1,0.1-0.1,0.1-0.1c0.1,0,0,0.1,0.1,0.1c0.1,0,0-0.1,0.1,0
			c0-0.1,0,0,0.1,0.1c0-0.1,0-0.1,0,0c0-0.1,0.1-0.1,0.1-0.1c0,0,0,0.1,0,0.1c0.1-0.1,0,0,0.1,0c0,0.1,0.1,0.1,0.1,0
			c0,0,0.1,0,0.1,0c0,0,0.1-0.1,0.2-0.1c0,0,0.1,0.2,0.1,0.1c0.1,0,0.1,0.2,0.2,0.1c0,0,0.1,0.1,0,0.1c0,0,0,0.3,0.1,0.3
			C20.2,39.3,20.1,39.6,20,39.6z M21.4,26C21.4,26,21.4,26,21.4,26c-0.1,0-0.1-0.1-0.1,0c-0.1-0.1-0.3,0.1-0.4-0.1
			c-0.1,0.1-0.2,0-0.2,0c-0.1,0.1-0.1,0.1-0.3,0.1c0,0,0,0,0,0l0,0c0.1,0.1,0.1,0.2,0.1,0.4c0,0,0,0-0.1,0c0,0,0,0,0.1,0
			c-0.1,0,0,0.2,0,0.2c0,0-0.1,0-0.1,0c0,0,0.1,0,0.1,0c0,0,0,0.1,0,0.1c0,0,0-0.1,0-0.1c0,0.1,0,0.1,0,0.2c0,0,0.1,0,0.1,0
			c-0.1,0-0.1,0-0.1,0c-0.1,0.2,0.2,0.1,0,0.3l0,0.1c0,0,0,0.1,0.1,0.1c-0.1,0-0.1,0.1,0,0.2c-0.1,0-0.1,0,0,0c-0.1,0,0,0.1-0.1,0.1
			c0,0,0.1,0,0.1,0c-0.1,0.1,0,0.2-0.1,0.2c0.1,0,0.1,0.1,0,0.1c0,0,0,0,0.1,0c0,0-0.1,0.1-0.1,0.2c0,0,0.1,0.2,0,0.2
			c0,0.1,0.1,0.2,0,0.2c0.2,0.1-0.1,0.2,0.1,0.3c-0.1,0,0,0-0.1,0.1c0,0,0.1,0,0.1,0c-0.1,0,0,0.1-0.1,0.1c0.1,0.2,0.1,0.1,0,0.2
			c0,0,0.1,0,0.1,0c0,0,0,0,0,0c0,0,0,0,0,0c-0.1,0.1,0.1,0.1,0,0.2c0,0,0,0,0,0c0,0.1-0.1,0.1-0.1,0.1c0,0,0,0,0,0.2
			c0,0.1,0.1,0.2,0,0.3c0,0.1,0,0.2,0,0.2c0.1,0.1,0.1,0.1,0,0.2c0,0,0,0.1,0,0.1c0,0,0,0.1,0,0.1c-0.1,0,0,0,0,0c0,0,0,0,0,0.1
			c0,0,0,0.1,0,0c0,0,0,0,0,0c0,0,0,0,0,0.1c0,0.1,0,0.1,0,0.2c0,0,0,0.1,0,0.1c-0.1,0,0,0.2,0,0.1c0,0,0,0.1,0,0.1l0,0
			c0.1,0.1,0,0.1,0,0.2c0,0,0,0,0,0c0,0,0,0,0,0l0,0.1l0,0c0,0,0,0,0,0l0,0c0,0,0,0,0,0c-0.1,0,0,0.2-0.1,0.2c0,0,0,0,0,0
			c0,0-0.1,0-0.1,0c0,0,0,0-0.1,0c0,0.1,0,0.1,0,0.1c0.1,0.1-0.1,0.1-0.2,0.2c-0.1,0-0.1,0-0.2,0.1c0,0,0,0.1,0,0.1c0,0-0.2,0-0.2,0
			c-0.1,0-0.1,0-0.2,0c0,0,0.1,0,0,0c0,0,0,0-0.1,0c0-0.1-0.1,0-0.1-0.1c0,0,0,0-0.1,0c0-0.1-0.1,0-0.1-0.1c0,0-0.1,0-0.2,0
			c0,0,0,0,0,0c-0.1,0,0,0,0,0.1c0-0.1-0.2-0.1-0.2-0.1c0,0,0,0-0.1,0c0,0,0,0,0,0c-0.1,0-0.1-0.1-0.2-0.1c0.1-0.1-0.1-0.2,0.1-0.2
			c-0.1,0,0,0-0.1,0c0,0,0-0.1,0.1-0.1l0,0l0.1-0.1l0,0l0.1-0.1c0,0-0.1-0.1,0-0.1c0,0,0-0.2,0-0.2c0,0,0,0,0.1,0
			c0.1-0.2,0-0.2,0-0.3c0,0,0.1-0.1,0-0.2c0.1-0.1,0-0.2,0-0.3c0.1-0.4-0.1-0.3,0-0.6c0,0,0,0,0,0c0.1-0.1,0-0.2,0-0.2c0,0,0,0,0,0
			c0,0,0,0,0,0c0,0,0,0-0.1,0c0.1-0.1,0-0.1,0-0.2c0.1,0,0-0.1,0.1-0.1c0,0-0.1,0-0.1,0c0,0,0-0.1,0.1-0.1c-0.1-0.1,0.1-0.2-0.1-0.3
			c0.1-0.1,0-0.1,0-0.2c0,0,0-0.2,0-0.2c0-0.1,0.1-0.2,0.1-0.2c0,0-0.1,0-0.1,0c0.1,0,0-0.1,0-0.1c0.1-0.1,0-0.2,0.1-0.2
			c0,0,0,0-0.1,0c0.1,0,0-0.1,0.1-0.1c0,0-0.1-0.1,0,0c0-0.1-0.1-0.2,0-0.2c-0.1-0.1-0.1-0.2-0.1-0.3c0-0.1,0-0.1-0.1-0.2
			c0,0,0-0.1,0.1-0.1c0,0-0.1,0-0.1,0c0-0.1,0-0.3,0-0.3c0,0,0-0.1,0-0.1c0,0,0,0,0.1,0c0,0,0,0-0.1,0c0,0,0.1,0,0.1,0
			c0,0-0.1-0.1,0-0.1c0,0-0.1,0-0.1,0c0,0,0,0,0.1,0c0-0.2,0-0.1,0-0.2c0,0,0-0.1-0.1-0.2c0.1-0.1,0.1-0.2,0-0.3
			c0-0.4-0.1-0.3,0-0.6c0,0,0,0,0,0c0-0.1-0.1-0.2,0-0.3c0,0,0,0,0,0c0,0,0,0,0,0c0,0,0,0-0.1,0c0-0.1,0.1-0.1,0-0.2
			c0.1,0,0-0.1,0.1-0.1c0,0-0.1,0-0.1,0c0,0,0-0.1,0.1-0.1c-0.2-0.1,0.1-0.2-0.1-0.3c0.1-0.1,0-0.1,0-0.2c0,0,0.1-0.2,0-0.2
			c0-0.1,0-0.2,0-0.2c0,0-0.1,0-0.1,0c0.1,0,0.1-0.1,0.1-0.1c0-0.1,0-0.2,0.1-0.3c0,0,0,0-0.1,0c0.1,0,0-0.1,0.1-0.1
			c-0.1,0-0.1,0,0,0c0-0.1-0.1-0.2,0-0.1c0-0.1,0-0.1,0-0.2c0,0.1,0-0.1,0.1-0.1c-0.1-0.1,0.1-0.1,0.1-0.2c0.1,0,0.1-0.1,0.1-0.1
			c0,0,0-0.1,0,0c0-0.1,0.1-0.2,0.1-0.1l0.2-0.1c0.1-0.1,0.1-0.1,0.2-0.2c0,0.1,0,0,0,0.1c0-0.1,0.1,0,0.2-0.1c0,0,0.2,0.1,0.2,0.1
			c0.1,0.1,0,0.2,0.1,0.2c-0.1,0,0,0-0.1,0c0.1,0.1,0.1,0.2,0.1,0.2c-0.1,0.1,0,0.1,0,0.2c-0.1,0,0,0,0,0c-0.1,0.1,0,0.1,0,0.1
			c0,0,0.1,0,0.1,0c0,0.1,0,0.1,0,0.2c0.1,0,0.1,0.1,0,0.1c0,0,0,0.1,0.1,0.1c0,0,0,0.1,0,0.2c0,0,0.1,0.2,0,0.2
			c0,0.1,0.1,0.1,0,0.2c0.1-0.1,0.1,0,0.2-0.1c0,0.1,0.2,0,0.1,0c0.1,0,0.1,0,0.2-0.1c0,0.1,0.1,0.1,0.2,0.1c-0.1,0.1,0,0.1,0,0
			c0,0.1,0.1,0,0.1,0.1c0,0,0-0.1,0-0.1c0,0.1,0.1,0,0.1,0.1c0-0.1,0.1-0.1,0.1,0c0,0,0,0.1,0.1,0.1c0,0,0.2-0.1,0.2-0.1
			c0,0,0.2,0,0.2,0c0,0,0.1,0,0.1,0c0,0,0,0,0.1,0c0,0,0,0.1,0,0.1c0,0,0,0,0,0c0,0,0,0,0,0c0.1-0.1,0.1,0.1,0.2,0c0,0,0,0,0,0
			c0.3,0-0.1,0,0.3,0c0.1,0.1,0,0,0-0.1c0.1,0,0.2,0,0.2-0.1c0.1,0.1,0,0.1,0.1,0.1c0,0,0,0,0-0.1c0,0,0,0,0,0.1c0-0.1,0.1,0,0.1,0
			c0,0,0-0.1,0-0.1c0,0,0,0.1,0.1,0.1c0,0,0.1-0.1,0.1-0.1c0,0,0.1,0,0.1,0c0.1,0,0,0,0.1,0c0,0,0.2,0,0.2,0c0-0.1,0.1,0,0.1-0.1
			c0.1,0,0.1,0,0.2,0c0.1,0,0-0.1,0.1,0c0-0.1,0,0,0.1,0c0-0.1,0-0.1,0.1-0.1c0-0.1,0.2,0,0.2-0.1c0,0,0,0.1,0,0.1
			c0-0.1,0.1-0.1,0.1-0.2c0,0.1,0.1,0,0.1-0.1c0,0,0.1,0.1,0.1,0.1c0,0,0,0.1,0,0.1c0,0,0.1,0.3,0.1,0.3c0.1,0,0,0.3,0.1,0.2
			c0,0,0,0.2,0,0.2c0,0,0,0,0.1,0.1c-0.2,0,0.1,0.3-0.1,0.3c0,0.1,0,0.3,0,0.3c-0.1,0-0.3,0.4-0.2,0.4c0,0,0-0.1,0-0.1
			c0,0.1,0,0.1-0.1,0c-0.1,0.1-0.2,0.2-0.2,0.3c0,0,0,0,0-0.1c0,0.1-0.1,0-0.1,0.1c0,0-0.1-0.1,0,0c-0.1,0-0.2,0-0.2,0.1
			c0,0-0.1,0-0.1,0l-0.2-0.1c-0.1,0.2,0,0-0.3,0.1c0,0,0,0-0.1,0c-0.1,0-0.1,0-0.1,0c0,0-0.1,0-0.1,0c0,0,0,0.1,0,0c0,0,0,0,0,0
			c0,0-0.2-0.1-0.2,0c0,0,0,0-0.1-0.1c0,0,0,0,0,0C23,25.9,23,26,22.9,26c0,0-0.1,0-0.2,0c-0.1,0.1,0,0.1-0.1,0c-0.1,0-0.1,0-0.2,0
			c0,0,0,0-0.1,0c0,0-0.2-0.1-0.2-0.1c-0.1,0-0.3,0-0.3,0.1c0,0,0,0,0,0c0,0,0,0,0,0c0,0,0,0,0-0.1c-0.1,0-0.1,0.1-0.2,0
			C21.6,26,21.4,26,21.4,26z M28.5,36.5c0,0.1,0,0.2,0,0.1c0,0.1,0,0.1,0,0.2c0-0.1,0,0,0-0.1c0,0.1-0.1,0-0.1,0.2
			c-0.1,0-0.2,0.1-0.2,0.1c0,0,0,0.2-0.1,0.1c0,0.1-0.2,0.2-0.2,0.1c-0.1,0.1,0-0.1-0.1-0.1l-0.1,0l0,0l0,0L27.4,37l0,0l-0.1,0
			c0,0-0.1-0.1,0-0.1c0,0,0-0.2-0.1-0.2c0,0,0,0,0.1,0c0-0.2,0-0.2-0.1-0.3c0,0,0-0.1-0.1-0.2c0.1-0.1-0.1-0.2-0.1-0.3
			c0.1-0.4-0.1-0.3,0.1-0.6c0,0,0,0,0,0c0.1-0.1,0-0.2,0-0.2c0,0,0,0,0,0c0,0,0,0,0,0c0,0,0,0-0.1,0c0-0.1,0-0.1-0.1-0.2
			c0.1,0,0-0.1,0.1-0.1c0,0-0.1,0-0.1,0c0,0,0-0.1,0.1-0.1c-0.1-0.1,0.1-0.2-0.1-0.3c0.1-0.1,0-0.1,0-0.2c0,0,0-0.2,0-0.2
			c0-0.1,0.1-0.2,0.1-0.2c0,0-0.1,0-0.1,0c0.1,0,0-0.1,0-0.1c0-0.1,0-0.2,0.1-0.2c0,0,0,0-0.1,0c0.1,0,0-0.1,0.1-0.1
			c-0.1,0-0.1-0.1,0,0c0-0.1-0.1-0.2,0-0.2c-0.1-0.1,0-0.2,0-0.3c0-0.1,0.1-0.1,0-0.2c0,0,0-0.1,0.1-0.1c0,0-0.1,0-0.1,0
			C27,32.2,27,32,27,32c0,0,0-0.1,0-0.1c0,0,0,0,0.1,0c0,0-0.1,0-0.1,0c0,0,0.1,0,0.1,0c0,0-0.1-0.1,0-0.1c0,0-0.1,0-0.1,0
			c0,0,0,0,0.1,0c0-0.2,0-0.1,0-0.2c0,0,0-0.1-0.1-0.2c0.1-0.1-0.1-0.1-0.1-0.1c0,0-0.1,0-0.1,0.1c0,0,0-0.1,0-0.1c0,0.1,0,0-0.1,0
			c-0.1,0.1-0.2-0.1-0.3,0c0,0,0,0,0-0.1c0,0.1-0.1,0-0.1,0.1c0,0-0.1-0.1,0,0c-0.1,0-0.2-0.1-0.2,0c0,0-0.1,0-0.1,0l-0.1,0.1
			c-0.1,0.1,0-0.1-0.2,0c0,0,0,0,0,0.1c0,0,0-0.1,0-0.1c-0.1,0-0.2,0-0.2,0c0,0-0.1,0-0.1,0c0,0,0,0-0.1-0.1c0,0,0,0.1,0,0.1
			c0,0-0.2-0.1-0.2,0c0,0,0,0,0-0.1c0,0,0,0,0,0.1c-0.1,0-0.1,0.1-0.2,0c0,0-0.1,0-0.2,0c-0.1,0.1,0,0.1-0.1,0
			c-0.3,0.1,0.2,0-0.1,0.1c0,0,0,0,0,0c-0.1,0-0.2-0.1-0.2,0c0,0,0,0,0,0c0,0,0,0,0,0c0,0,0,0,0-0.1c-0.1,0-0.1,0.1-0.2,0
			c0,0.1-0.1,0-0.1,0.1c0,0,0-0.1,0-0.1c0,0-0.1,0-0.1,0.1c-0.1-0.1-0.2,0.1-0.3-0.1c-0.1,0.1-0.1,0.1-0.2,0.1c0,0-0.1,0-0.1,0
			c-0.1,0-0.2,0-0.2,0c0,0,0,0-0.1,0c0,0.1-0.1,0-0.1,0c-0.1,0-0.2,0-0.2,0c0,0,0,0,0-0.1c0,0.1-0.1-0.1-0.1,0c0,0,0-0.1,0,0
			c-0.1,0-0.1-0.2-0.2-0.1C22,31.1,21.9,31,21.8,31c0,0,0,0,0,0.1c-0.1-0.1-0.1-0.1-0.1-0.1c0,0.1-0.1-0.1-0.1-0.1
			c0.1-0.1-0.1-0.2,0-0.3c-0.1,0,0,0-0.1,0c0.1-0.1,0-0.2,0.1-0.2c-0.1-0.1-0.1-0.1,0-0.2c-0.1,0,0,0,0,0c0,0,0.1,0,0-0.1
			c0,0,0,0.1,0,0c0,0,0-0.1,0-0.1c0,0,0.2-0.2,0.1-0.2c0-0.1,0.1-0.1,0-0.1c0,0,0.2-0.2,0.2-0.1c0,0,0.1,0,0.1,0
			c0,0.2,0.2-0.2,0.2,0c0.1,0,0.1,0,0.2,0c0,0,0,0,0-0.1c0.1,0,0.1,0,0.2,0c0-0.1,0.1,0,0.1,0c0-0.1,0-0.1,0,0
			c0.1-0.1,0.1,0,0.1-0.1c0,0,0,0.1,0,0.1c0.1,0,0.1,0,0.2,0c0,0.1,0,0.1,0.1,0c0,0,0,0,0.1,0c0,0,0.1,0,0.1,0c0,0,0.2,0.1,0.2,0
			c0.1,0,0.1,0,0.2,0c0.1,0.2,0.2-0.1,0.3,0c0-0.1,0,0,0.1-0.1c0,0,0,0.1,0,0.1c0-0.1,0.1,0,0.1-0.1c0.1,0.1,0.1,0,0.2,0
			c0,0,0,0.1,0,0.1c0,0,0,0,0,0c0,0,0,0,0,0c0.1-0.1,0.1,0,0.2,0c0,0,0,0,0,0c0.3-0.1-0.2-0.1,0.1-0.1c0.1,0,0.1,0.1,0.2,0.1
			c0.1,0,0.2,0,0.2-0.1c0.1,0.1,0,0.1,0.1,0.1c0,0,0,0,0-0.1c0,0,0,0,0,0.1c0-0.1,0.1,0,0.1,0c0,0,0-0.1,0-0.1c0,0,0,0.1,0.1,0.1
			c0,0,0.1-0.1,0.1-0.1c0,0,0.1,0,0.1,0c0.1,0,0.2,0,0.3,0c0,0,0,0.1,0,0.1c0-0.1,0.1-0.1,0.1-0.1c0.1,0,0.1,0,0.2,0
			c0.1,0,0-0.1,0.1-0.1c0-0.1,0,0,0.1,0.1c0-0.1,0-0.1,0,0c0-0.1,0.1,0,0.1-0.1c0,0,0,0.1,0,0.1c0-0.1,0,0,0.1,0
			c0,0.1,0.1,0.1,0.1,0c0,0,0.1-0.1,0.2-0.1c0,0,0.1,0.1,0.1,0c0,0,0.2,0.1,0.2,0.1c0.1,0,0.1,0.1,0.1,0c0,0,0.1,0.1,0.1,0.1
			c0,0,0,0,0.1,0.1c0,0,0.2,0,0.2,0.1c0.1,0,0.1,0,0.2,0c0,0,0,0,0,0.1c0.1,0,0.1,0,0.1,0c0,0,0,0.1,0,0c0,0.1,0,0.2,0.1,0.1
			c0,0.1,0,0.1,0,0.1l0.1,0.1c0.2,0-0.1,0,0.1,0.2c0-0.1,0,0.1,0.1,0.1c0,0,0.1,0.1,0.1,0.1c0.1,0.1,0,0.1,0,0.1c0,0,0-0.1,0-0.1
			c0,0,0,0.1,0,0.1c0,0,0,0,0,0c0,0,0,0,0,0c0,0,0,0.1,0,0.1c0,0,0,0,0,0.1c0,0-0.1,0,0,0.1l0.1,0c0,0,0,0.1,0,0.2c0,0,0,0,0,0
			c0.1,0.1,0.1,0.2,0,0.4c0,0,0-0.1-0.1,0c0,0,0,0,0.1,0c-0.1,0,0,0.2,0,0.2c0,0-0.1,0-0.1,0c0,0,0.1,0,0.1,0.1c0,0,0,0.1-0.1,0.1
			c0,0,0-0.1,0-0.1c0,0.1,0,0.1,0,0.2c0,0,0.1,0,0.1,0c-0.1,0-0.1,0-0.1,0c-0.1,0.2,0.2,0.1,0,0.3l0,0.1c0,0,0,0.1,0.1,0.1
			c-0.1,0-0.1,0.1,0,0.2c-0.1,0-0.1,0,0,0c-0.1,0,0,0.1-0.1,0.1c0,0,0.1,0,0.1,0c-0.1,0.1-0.1,0.2-0.1,0.2c0.1,0,0.1,0.1,0,0.1
			c0,0,0,0,0.1,0c0,0-0.1,0.1-0.1,0.2c0,0,0.1,0.2,0,0.2c0,0.1,0.1,0.2,0,0.2c0.1,0.1-0.1,0.2,0,0.3c-0.1,0,0,0-0.1,0.1
			c0,0,0.1,0,0.1,0c-0.1,0,0,0.1-0.1,0.1c0.1,0.2,0.1,0.1,0,0.2c0,0,0.1,0,0,0c0,0,0,0,0,0c0,0,0,0,0,0c-0.1,0.1,0,0.2-0.1,0.2
			c-0.1,0.1-0.1,0,0,0.2c-0.1,0,0,0.1-0.1,0.1c0,0,0.1,0,0.1,0c0,0,0,0.1-0.1,0c0.1,0.1-0.1,0.2,0,0.3c-0.1,0.1,0,0.1,0,0.2
			c0,0-0.1,0.2-0.1,0.2c0,0,0,0.1,0,0.1c0,0-0.1,0.1-0.1,0.2c-0.1,0-0.1,0.1-0.1,0.1c-0.1,0.1,0,0.1-0.1,0.2c0,0,0,0,0.1,0
			C28.5,36.4,28.6,36.5,28.5,36.5C28.6,36.5,28.6,36.6,28.5,36.5z M33.2,39.4c0,0.1-0.1,0.2,0,0.3c0,0,0,0,0,0
			c-0.1,0-0.2,0.3-0.2,0.3c0,0,0-0.1,0-0.1c0,0.1,0,0.1-0.1,0c-0.1,0.1-0.2,0.2-0.2,0.3c0,0,0,0,0-0.1c0,0.1-0.1,0-0.1,0.1
			c0,0-0.1-0.1,0,0c-0.1,0-0.2,0-0.2,0.1c0,0-0.1,0-0.1,0L32,40.3c-0.1,0.2,0,0-0.3,0.1c0,0,0,0-0.1,0c-0.1,0-0.1,0-0.1,0
			c0,0-0.1,0-0.1,0c0,0,0,0.1,0,0c0,0,0,0,0,0c0,0-0.2-0.1-0.2,0c0,0,0,0-0.1-0.1c0,0,0,0,0,0c-0.1,0.1-0.1,0.1-0.2,0.1
			c0,0-0.1,0-0.2,0c-0.1,0.1,0,0.1-0.1,0c-0.1,0-0.1,0-0.2,0c0,0,0,0-0.1,0c0,0-0.2-0.1-0.2-0.1c-0.1,0-0.3,0-0.3,0.1c0,0,0,0,0,0
			c0,0,0,0,0,0c0,0,0,0,0-0.1c-0.1,0-0.1,0.1-0.2,0c0,0.1-0.2,0.1-0.2,0.1c0,0,0-0.1,0-0.1c0,0-0.1,0-0.1,0.1
			c-0.1-0.1-0.3,0.1-0.4-0.1c-0.1,0.1-0.2,0-0.2,0c0.1-0.4-0.1-0.4,0-0.6c0,0,0,0,0,0c0-0.1-0.1-0.2,0-0.3c0,0,0,0,0,0c0,0,0,0,0,0
			c0,0,0,0-0.1,0c0-0.1,0.1-0.1,0-0.2c0.1,0,0-0.1,0.1-0.1c0,0-0.1,0-0.1,0c0,0,0-0.1,0.1-0.1c-0.1-0.1,0.1-0.2-0.1-0.3
			c0.1-0.1,0-0.1,0-0.2c0,0,0-0.2,0-0.2c0-0.1,0-0.2,0-0.2c0,0-0.1,0-0.1,0c0.1,0,0.1-0.1,0-0.1c0-0.1,0.1-0.2,0.1-0.2
			c0,0-0.1,0-0.1,0c0.1,0,0,0,0.1-0.1c-0.1,0-0.1,0,0,0c0-0.1-0.1-0.2,0.1-0.1c0-0.1,0-0.1,0-0.2c0,0.1,0,0,0.1,0
			c-0.1-0.1,0.1-0.1,0.1-0.2c0.1,0,0.1-0.1,0.1-0.1c0,0,0-0.1,0,0c0-0.1,0.1-0.2,0.1-0.1c0.1-0.1,0.1-0.1,0.2-0.1c0,0.1,0,0,0,0.1
			c0-0.1,0.1,0.1,0.2,0c0,0,0.2,0.1,0.1,0.1c0.1,0.1,0,0.2,0.2,0.2c-0.1,0,0,0-0.1,0c0,0.1,0.1,0.1,0.2,0.2c-0.1,0,0,0.1,0,0.2
			c-0.1,0-0.1,0,0,0c-0.1,0.1,0,0.1,0,0.1c0,0,0.1,0,0.1,0c0,0.1,0,0.1,0,0.2c0.1,0,0.1,0.1,0,0.1c0,0-0.1,0.1,0,0.1
			c0,0,0.1,0.1,0.1,0.2c0,0,0.1,0.2,0,0.2c0,0,0,0.1,0,0.1c0,0,0,0,0.1,0c0,0,0,0.1,0,0.1c0,0,0,0,0,0c0,0,0,0,0,0
			c0.1-0.1,0.1,0,0.2-0.1c0,0,0,0,0,0c0.3,0-0.1,0,0.3,0c0.1,0.1,0,0,0-0.1c0.1,0,0.2,0.1,0.2,0c0.1,0.1,0,0.1,0.1,0.1
			c0,0,0,0,0-0.1c0,0,0,0,0,0.1c0-0.1,0.1,0,0.1,0c0,0,0-0.1,0-0.1c0,0,0,0.1,0.1,0.1c0,0,0.1-0.1,0.1-0.1c0,0,0.1,0,0.1,0
			c0.1,0,0,0.1,0.1,0.1c0,0,0.2,0,0.2,0c0-0.1,0.1-0.1,0.1-0.1c0.1,0,0.1,0,0.2,0c0.1,0,0-0.1,0.1-0.1c0-0.1,0,0,0.1,0.1
			c0-0.1,0-0.1,0,0c0-0.1,0.1,0,0.1-0.1c0,0,0,0.1,0,0.1c0-0.1,0,0,0.1,0c0,0.1,0.1,0.1,0.1,0c0,0,0.1,0,0.1,0c0,0,0.1-0.1,0.2-0.1
			c0,0,0.1,0.1,0.1,0.1c0.1,0,0,0.3,0.1,0.2c0,0,0.1,0.1,0.1,0.1c0,0,0,0,0.1,0.1C33.1,39.1,33.4,39.3,33.2,39.4z M34,31.8
			c0,0.1-0.1,0.2-0.1,0.3c0,0-0.1,0.1,0,0.1c-0.1,0,0,0.1,0,0.1c0,0-0.1,0.1-0.1,0.1c0,0.1-0.1,0.2-0.1,0.2
			c-0.1,0.1-0.1,0.1-0.1,0.1c0,0,0,0,0-0.1c0,0.1-0.1,0-0.1,0.1c0,0-0.1-0.1,0,0c-0.1,0-0.1-0.1-0.2,0c0,0-0.1,0-0.1-0.1l-0.1,0
			c-0.1,0.1,0.1-0.1-0.2,0c0,0-0.1-0.1-0.1,0c0,0-0.1,0-0.1-0.1c-0.1,0-0.1-0.1-0.1,0c0,0,0,0,0.1,0.1c0,0-0.1-0.1-0.1,0
			c0,0,0,0-0.1,0c0,0,0,0,0,0c0,0-0.1-0.1-0.1,0c0,0.1,0,0.2,0,0.2c0,0,0-0.1-0.1,0c0,0,0,0,0.1,0.1c-0.1,0,0,0.2,0,0.2
			c0,0-0.1-0.1-0.1-0.1c0,0,0.1,0.1,0.1,0.1c0,0,0,0.1-0.1,0.1c0,0,0-0.1,0-0.1c0,0.1,0,0.1,0,0.2c0,0.1,0.1,0,0.1,0.1
			c-0.1,0-0.1,0-0.1-0.1c-0.1,0.2,0.1,0.2,0,0.3l-0.1,0.1c0,0,0,0.1,0,0.2c-0.1,0-0.1,0.1-0.1,0.2c-0.1-0.1-0.1,0,0,0
			c-0.1,0,0,0.1-0.1,0.1c0,0,0.1,0.1,0.1,0.1c-0.1,0-0.1,0.1-0.1,0.2c0.1,0.1,0.1,0.1,0,0.1c0,0,0,0,0.1,0c0,0-0.1,0.1-0.1,0.1
			c0,0-0.1,0.3-0.1,0.2c-0.1,0.1-0.1,0.2-0.2,0.2c0,0.2-0.2-0.1-0.2,0.1c0,0,0,0,0,0c-0.1-0.1-0.2,0-0.2-0.1c0,0,0,0,0,0
			c0,0,0,0,0,0c0,0,0,0-0.1,0c-0.1-0.1,0,0-0.2-0.1c0.1,0,0-0.1,0.1-0.1c0,0-0.1,0-0.1,0c0,0,0-0.1,0.1,0c-0.2-0.1,0.1-0.2-0.1-0.3
			c0.1-0.1-0.1-0.1,0-0.2c0,0,0-0.2,0-0.2c0-0.1,0.1-0.2,0.1-0.2c0,0-0.1,0-0.1,0c0.1,0,0,0,0-0.1c0.1-0.1,0-0.2,0.1-0.2
			c0,0,0,0-0.1-0.1c0.1,0,0-0.1,0.1-0.1c0,0-0.1-0.1,0,0c0-0.1-0.1-0.2,0-0.2c-0.1-0.1-0.1-0.2-0.1-0.3c0-0.1,0-0.1,0-0.2
			c0,0.1,0-0.1,0.1,0c0,0-0.1,0-0.1-0.1c0-0.1,0-0.3,0-0.3c0,0,0-0.1,0-0.1c0,0,0,0,0.1,0c0,0,0-0.1-0.1-0.1c0,0,0.1,0,0.1,0
			c0,0-0.1-0.1,0-0.1c0,0-0.1,0-0.1-0.1c0,0,0,0,0.1,0c0-0.1,0-0.1,0-0.2c0,0,0.1-0.2,0-0.2c0.1,0,0.1-0.2,0-0.3
			c0-0.3-0.1-0.4,0-0.6c0,0,0,0,0,0c0-0.1-0.1-0.2,0-0.2c0,0,0,0,0,0c0,0,0,0,0,0c0,0,0,0-0.1-0.1c0-0.1,0.1,0,0-0.2
			c0.1,0,0-0.1,0.1-0.1c0,0-0.1,0-0.1-0.1c0,0,0-0.1,0.1,0c-0.1-0.2,0.1-0.2-0.1-0.4c0.1-0.1,0-0.1,0-0.2c0,0,0.1-0.2,0-0.2
			c0-0.1,0-0.2,0-0.2c0,0-0.1,0-0.1,0c0.1,0,0.1,0,0.1,0c0-0.1,0-0.2,0.1-0.2c0,0,0,0-0.1-0.1c0.1,0,0-0.1,0.1-0.1c0,0-0.1-0.1,0,0
			c0-0.1-0.1-0.2,0-0.1c0-0.1,0-0.1,0-0.2c0,0.1,0,0,0.1,0.1C31,28,31.2,28,31.1,27.9c0.1,0.1,0.1,0,0.1,0c0-0.1,0-0.1,0,0
			c0-0.1,0.1,0,0.2,0.1c0.1-0.1,0,0,0.1,0c0,0,0,0,0,0.1c0-0.1,0.1,0.1,0.2,0c0,0,0.2,0.2,0.1,0.2c0.1,0.1,0,0.2,0.1,0.3
			c-0.1,0,0,0-0.1,0c0,0.1,0.1,0.2,0.2,0.3c-0.1,0,0,0.1,0,0.2c-0.1-0.1-0.1,0,0,0c-0.1,0,0,0.1,0,0.1c0,0,0.1,0,0.1,0.1
			c0,0,0,0.1,0,0.1c0,0,0.1,0.1,0.2,0.1l0,0c0,0,0,0,0,0c0,0-0.1,0,0,0.1c0,0,0,0.1,0,0.2c0,0,0.1,0.3,0,0.2c0,0.1,0.1,0.2,0,0.2
			c0.2,0.2-0.1,0.2,0.1,0.4c-0.1,0,0,0-0.1,0c0,0,0.1,0,0.1,0.1c-0.1,0,0,0.1-0.1,0.1c0.1,0.2,0.1,0.1,0,0.2c0,0,0.1,0,0.1,0.1
			c0,0,0,0,0,0c0,0,0,0,0,0c0,0,0,0.1,0,0.1c0.1,0,0.2,0,0.3,0c0,0,0,0.1,0,0.1c0-0.1,0.1-0.1,0.1-0.1c0.1,0,0.1,0,0.2,0
			c0.1,0,0.1-0.2,0.2-0.1c0-0.1,0,0,0.1,0.1c0-0.1,0-0.1,0,0c0-0.1,0.1,0,0.1-0.1c0,0,0,0.1,0,0.1c0-0.1,0,0,0.1,0
			c0,0.1,0.1,0.1,0.1,0c0,0,0.1,0,0.1,0.1c0,0,0.1,0,0.1,0c0,0,0.2,0.2,0.2,0.1c0.1,0,0.1,0.1,0.1,0c0,0,0.2,0.2,0.2,0.2
			c0,0,0,0.1,0,0.1C34.1,31.7,34.2,31.8,34,31.8z M34.5,29.9C34.5,29.9,34.6,29.9,34.5,29.9C34.5,29.9,34.5,29.9,34.5,29.9
			c0.1-0.1,0-0.1,0.1-0.2c0,0,0-0.1-0.1-0.1c0,0,0,0,0-0.1c0,0,0-0.1-0.1-0.1c0-0.1,0,0,0-0.1c0-0.1,0,0.1,0,0c0-0.1,0-0.1,0-0.2
			c0,0,0.1-0.2,0-0.2c0,0,0,0,0.1,0c0-0.1,0.1-0.1,0.1-0.2c0.1,0,0.1-0.2,0.2-0.1c0.1-0.1,0,0,0.1,0c0,0,0,0,0-0.1c0,0,0,0,0-0.1
			c0,0,0,0.1,0,0.1c0.1-0.1,0.2,0,0.3-0.1c0,0,0,0,0,0.1c0,0,0.1,0,0.1,0c0,0,0,0,0-0.1c0.1,0,0.1,0,0.2,0c0,0-0.1,0,0.1-0.2
			c0,0.1,0,0,0,0.1c0-0.2,0.2,0,0.2,0c0,0,0.1-0.1,0.1-0.1c0,0,0.1,0.1,0.1,0c0.1,0,0.1,0.1,0.2,0c0,0.1,0.1,0,0.1,0.1
			c0.1,0,0.2-0.1,0.3,0c0.1,0,0.2,0,0.3,0c0,0,0,0,0,0.1c0,0,0.1,0,0.1,0c0.1,0,0.2-0.1,0.3-0.1c0,0,0.2,0,0.2,0c0,0,0.1,0,0.1,0
			c0,0.1,0.1,0,0.2,0.1c0-0.1,0.1,0,0.1-0.1c0,0,0.1,0.1,0.1,0c0.1,0.1,0,0,0.1,0.1c0.1-0.1,0.1-0.1,0.3,0c0,0,0,0,0,0c0,0,0,0,0,0
			c0,0,0,0,0,0s0,0.1,0,0c0,0,0,0,0,0.1c0,0,0.1,0,0.1,0c0,0,0.1-0.1,0.1,0c0.1-0.1,0.1-0.1,0.2-0.1c0,0.1,0,0,0.1,0
			c0,0.1,0,0.1,0,0.1c0,0,0,0,0,0.1c0,0,0-0.1,0-0.1c0,0,0,0,0,0c0,0.1,0.1,0,0,0.1c0,0,0-0.1,0.1-0.1c0,0.1,0,0,0,0.1
			c0,0,0.1,0,0.1,0.1c0,0,0-0.1,0,0c0,0-0.1,0-0.1-0.1c0.1,0,0.1,0,0.2,0c0,0.1-0.1,0-0.1,0.1c0,0-0.1-0.1-0.1,0
			c0.1,0,0.2,0.1,0.3,0.1c0,0,0-0.1,0-0.1c0,0,0,0.1,0.1,0.1c0,0,0.1-0.1,0.1,0c0,0,0,0,0,0c0,0,0,0,0,0c0,0,0,0,0,0.1
			c0,0,0,0,0.1-0.1c0-0.1,0-0.1,0-0.2c0.1,0,0.2,0,0.3,0c0-0.1-0.1-0.1-0.1-0.1c0,0.1,0.1,0,0.1,0.1c-0.1,0.1-0.1-0.1-0.2,0
			c0,0,0,0,0,0c0,0,0,0,0,0c0,0,0.1,0,0-0.1c0.2,0,0.4,0.1,0.5,0.2c0,0.2,0,0.4,0,0.5c-0.1,0-0.1,0.2-0.1,0.3h0c0,0.1-0.1,0.1,0,0.2
			c-0.1,0.1-0.2,0.1-0.4,0.1c-0.1-0.1-0.2,0-0.4-0.1c0,0,0,0,0-0.1c0,0,0,0.1,0,0.1c-0.1,0-0.3,0-0.3,0c0,0,0,0,0.1,0c0,0,0,0,0-0.1
			c0,0,0,0.1,0,0.1c0,0,0-0.1,0-0.1c0,0-0.1,0.1-0.1,0c0,0,0,0.1,0,0.1c0,0,0,0,0-0.1c-0.2,0-0.3,0-0.4,0c0,0-0.1,0-0.2,0
			c-0.1-0.1-0.3-0.1-0.3,0c-0.4,0-0.3,0-0.6-0.1c0,0,0,0,0,0c-0.1,0-0.2,0.1-0.3,0c0,0,0,0,0,0c0,0,0,0,0,0c0,0,0,0,0,0.1
			c-0.1,0-0.1-0.1-0.2,0.1c0-0.1-0.1,0-0.1-0.1c0,0,0,0.1,0,0.1c0,0-0.1,0-0.1-0.1c-0.1,0.2-0.2-0.1-0.3,0.1c-0.1-0.1-0.1,0-0.2,0
			c0,0-0.2,0.1-0.2,0.1c-0.1,0-0.2,0-0.2,0c0,0,0,0.1,0,0.1c0-0.1-0.1,0-0.1,0c-0.1,0-0.2,0-0.3,0c0,0,0,0,0,0.1
			c-0.1-0.1-0.1,0-0.1,0c0,0.1,0,0.1,0,0c-0.1,0.1-0.1,0.1-0.2,0c-0.1,0.1-0.1,0.1-0.2,0.2c0-0.1,0,0,0-0.1c0,0.1-0.1-0.1-0.2,0
			c0-0.1-0.1-0.1-0.1-0.2c0,0,0,0,0,0c0,0,0-0.1,0-0.1C34.5,30.1,34.5,29.9,34.5,29.9z M40,34.6c0,0.1-0.1,0.2,0,0.3c0,0,0,0,0,0
			c-0.1,0-0.2,0.2-0.2,0.2c0,0,0-0.1,0-0.1c0,0.1,0,0.1-0.1,0c-0.1,0.1-0.2,0.1-0.2,0.2c0,0,0,0,0-0.1c0,0.1-0.1,0-0.1,0.1
			c0,0-0.1-0.1,0,0c-0.1,0-0.2,0-0.2,0.1c0,0-0.1,0-0.1,0l-0.1,0.1c-0.1,0.2,0-0.1-0.2,0c0,0,0,0,0,0.1c0,0,0-0.1,0-0.1
			c-0.1,0-0.2,0-0.2,0c0,0,0,0,0,0c0,0,0,0,0,0c0,0,0,0,0,0c0,0-0.1,0-0.1,0c0,0,0,0-0.1-0.1c0,0,0,0.1,0,0.1c0,0-0.2,0-0.2,0
			c0,0,0,0-0.1-0.1c0,0,0,0,0,0c-0.1,0.1-0.1,0.1-0.2,0c0,0-0.1,0-0.2,0c-0.1,0.1,0,0.1-0.1,0c-0.3,0.1,0.2,0-0.1,0.1c0,0,0,0,0,0
			c-0.1,0-0.2-0.1-0.2,0c0,0,0,0,0,0c0,0,0,0,0,0c0,0,0,0,0-0.1c-0.1,0-0.1,0.1-0.2,0c0,0.1-0.1,0-0.1,0.1c0,0,0-0.1,0-0.1
			c0,0-0.1,0-0.1,0.1c-0.1-0.1-0.2,0.1-0.3-0.1c-0.1,0.1-0.1,0.1-0.2,0.1c0,0-0.1,0-0.1,0c-0.1,0-0.2,0-0.2,0c0,0,0,0-0.1,0
			c0,0.1-0.1,0-0.1,0c-0.1,0-0.2,0-0.2,0c0,0,0,0,0-0.1c0,0.1-0.1-0.1-0.1,0c0,0,0-0.1,0,0c-0.1,0-0.1-0.2-0.2-0.1
			c-0.1-0.1-0.1-0.1-0.2-0.2c0,0,0,0,0,0.1c-0.1-0.1-0.1-0.1-0.1-0.1c0,0.1-0.1-0.1-0.1-0.1c0.1-0.1-0.1-0.2,0-0.3c-0.1,0,0,0-0.1,0
			c0.1-0.1,0-0.2,0.1-0.2c-0.1-0.1-0.1-0.1,0-0.2c-0.1,0,0,0,0,0c0,0,0.1,0,0-0.1c0.1,0,0.1,0,0.2,0c0,0,0,0,0-0.1
			c0.1,0,0.1,0,0.2,0c0-0.1,0.1,0,0.1,0c0-0.1,0-0.1,0,0c0.1-0.1,0.1,0,0.1-0.1c0,0,0,0.1,0,0.1c0.1,0,0.2,0,0.2,0
			c0,0.1,0,0.1,0.1,0c0,0,0.1,0,0.1,0c0,0,0.1,0,0.1,0c0,0,0.1,0,0.1,0c-0.1,0-0.1,0-0.1-0.1c0,0-0.1-0.1-0.1-0.2
			c-0.1-0.1-0.1-0.2-0.1-0.3c0-0.1,0-0.1,0-0.2c0,0,0,0-0.1-0.1c0,0,0,0,0,0c0-0.1,0-0.2,0-0.2c0,0,0,0,0,0c0,0,0,0,0,0c0,0,0,0,0,0
			c0-0.1-0.1-0.1,0-0.2c-0.1,0,0-0.1-0.1-0.1c0,0,0.1,0,0.1,0c0,0,0-0.1-0.1-0.1c0.1-0.1-0.1-0.1,0-0.2c-0.1-0.1,0-0.1,0-0.2
			c0,0,0-0.1,0-0.1c0-0.1,0.1-0.2,0-0.2c0,0,0,0,0-0.1c-0.1,0,0-0.1,0-0.1c0-0.1,0.1-0.2,0.1-0.2c0,0,0,0,0.1,0
			c-0.1,0,0.1-0.1,0-0.1c0,0,0.1,0,0,0c0-0.1,0.1-0.1,0-0.2c0.1-0.1,0.1-0.1,0.2-0.2c0,0,0,0-0.1,0c0.1-0.1,0.1-0.1,0.1-0.1
			c-0.1,0,0.1-0.2,0.1-0.2c0.1,0.1,0.1-0.1,0.1,0c0-0.1,0,0,0-0.1c0.1,0.1,0,0,0.1,0.1c0.1-0.1,0,0,0.1,0.1c0-0.1,0.1,0,0,0
			c0,0,0,0.1,0.1,0c0,0.1,0.1,0.1,0,0.2c0,0,0,0,0.1,0c0,0.1,0,0.1,0,0.2c0.1,0,0.2,0,0.1,0.1c0.1,0,0.1,0,0,0c0.1,0.1,0,0,0.1,0.1
			c0,0,0,0.1,0,0.1c0.1,0.1,0,0,0,0.1c-0.1,0-0.1,0.1,0,0.1c0,0,0.1,0.1,0,0.2c0,0,0,0.1,0,0.1c0,0,0,0.1,0,0.1c0,0.1,0,0.1,0.1,0.2
			c-0.1,0.1,0.1,0.2,0,0.3c0.1,0,0,0,0.1,0c0,0-0.1,0-0.1,0c0.1,0,0,0.1,0.1,0.1c-0.1,0.2,0,0.1,0.1,0.2c0,0-0.1,0-0.1,0
			c0,0,0,0,0,0c0,0,0,0,0,0c0.1,0.1,0.1,0.1,0.1,0.2c0,0,0,0,0,0c0.1,0.3-0.1-0.1,0,0.3c0,0.1-0.2,0.1-0.1,0.1c0,0.1-0.1,0.2,0,0.2
			c-0.1,0.1-0.1,0-0.1,0.1c0,0-0.1,0-0.1,0c0,0,0,0.2,0,0.2c0.1,0-0.1,0-0.1,0.1c0,0,0,0,0,0.1c0,0,0.1,0,0.1-0.1
			c0.1,0.1,0.1,0,0.2,0c0,0,0,0.1,0,0.1c0,0,0,0,0,0c0,0,0,0,0,0c0.1-0.1,0.1,0,0.2,0c0,0,0,0,0,0c0.1,0,0.1,0,0.1,0c0,0,0,0,0,0
			c0,0,0,0,0,0c0,0,0,0-0.1-0.1c0,0,0.1,0,0.1,0c0,0,0-0.1,0-0.1c0,0,0,0-0.1,0c0,0,0,0,0,0c0.1-0.1,0.1-0.2,0.1-0.3
			c0,0,0-0.2,0-0.3c0.1-0.1,0.2-0.4,0.1-0.5c0.1-0.3,0,0,0.1-0.3c0,0,0,0,0,0c0-0.1,0-0.1,0.1-0.1c0,0,0,0,0,0c0,0,0,0,0,0
			c0,0,0,0-0.1,0c0-0.1,0.1-0.2,0-0.3c0.1,0,0-0.1,0-0.1c0,0-0.1,0-0.1,0c0,0,0-0.1,0.1-0.1c-0.1-0.1,0.1-0.1,0-0.2
			c0.1-0.1,0-0.1,0-0.2c0,0,0.1-0.2,0-0.2c0-0.1,0-0.1,0-0.1c0,0,0,0,0-0.1c0.1,0,0.1,0,0-0.1c0-0.1,0.1-0.1,0.1-0.2c0,0,0,0-0.1,0
			c0.1,0,0-0.1,0.1-0.1c0,0-0.1,0,0,0c0-0.1-0.1-0.2,0-0.1c0-0.1,0,0,0-0.1c0,0.1,0-0.1,0.1-0.1c-0.1-0.1,0.1,0,0-0.1c0.1,0,0,0,0,0
			c0,0,0-0.1,0,0c0-0.1,0-0.2,0.1-0.1c0.1-0.1-0.1-0.1,0-0.2c0,0,0,0,0,0.1c0-0.1,0-0.1,0.1-0.2c0,0,0.2,0.1,0.2,0.1
			c0.1,0.1,0,0,0.1,0.1c-0.1,0,0.1,0.2,0,0.2c0,0.1,0,0.1,0.1,0.1c-0.1,0.1,0,0.1,0,0.2c-0.1,0,0,0,0,0c-0.1,0.1,0.1,0.1,0,0.2
			c0,0,0.1,0,0.1,0c0,0.1,0.1,0.1,0,0.2c0.1,0,0.1,0.1,0,0.1c0,0,0.1,0.2,0.1,0.2c0,0,0.1,0,0.1,0.1c0,0,0.1,0.1,0,0.1
			c0,0.1,0.1,0.1,0,0.2c0.2,0.1,0,0.2,0.1,0.3c-0.1,0,0,0-0.1,0.1c0,0,0.1,0,0.1,0c-0.1,0,0,0.1-0.1,0.1c0.1,0.1,0,0.1,0,0.2
			c0,0,0.1,0,0.1,0c0,0,0,0,0,0c0,0,0,0,0,0c-0.1,0.1,0,0.2,0,0.3c0,0,0,0,0,0c0,0.1,0,0.1,0,0.1c0,0,0,0.1,0,0.1
			c0.1,0.1,0,0.2-0.1,0.2c0,0.1,0,0.2-0.1,0.2c0,0.1-0.1,0.1-0.2,0.2c0,0,0-0.1,0,0c0,0,0,0,0,0.1c-0.1,0-0.2,0.2-0.2,0.2
			c0,0-0.1-0.1-0.1-0.1c0,0,0,0.1,0,0.1c0,0-0.1,0.1-0.1,0.1c0,0,0.1,0,0-0.1c0,0-0.1,0-0.1,0.1c0.1,0,0.1,0,0.2,0c0,0,0,0.1,0,0.1
			c0-0.1,0.1-0.1,0.1-0.1c0.1,0,0.1,0,0.2,0c0.1,0,0-0.1,0.1-0.1c0-0.1,0,0,0.1,0.1c0-0.1,0-0.1,0,0c0-0.1,0.1,0,0.1-0.1
			c0,0,0,0.1,0,0.1c0-0.1,0,0,0.1,0c0,0.1,0.1,0.1,0.1,0c0,0,0.1,0,0.1,0.1c0,0,0.1,0.1,0.1,0c0,0,0.2,0.1,0.2,0.1
			c0.1,0,0.1,0.1,0.1,0c0,0,0.1,0.1,0.1,0.1c0,0,0,0,0.1,0.1C40,34.3,40.1,34.6,40,34.6z M40.7,32.7c-0.1,0-0.2-0.1-0.3-0.1
			c0,0,0.1,0,0,0c0,0-0.2,0-0.2,0c0,0.1,0,0-0.1,0l0-0.1l0,0l-0.1,0l0,0l0-0.1l0-0.1v0c-0.1,0-0.1-0.1-0.1-0.2c0,0,0-0.1-0.1-0.1
			c0,0,0,0,0-0.1c0-0.1-0.2-0.1-0.1-0.2c0,0,0,0,0-0.1c0,0,0,0,0,0c0,0,0-0.1,0,0c0,0,0,0,0-0.1c0,0,0.1,0,0.1-0.1c0,0,0,0,0,0.1
			c0,0,0,0,0,0c0.2,0,0.3-0.2,0.4-0.1c0,0,0.2,0,0.3,0c0.1-0.1,0.2,0,0.3,0.1c0.3-0.1,0.3,0.1,0.5,0c0,0,0,0,0,0
			c0.1,0,0-0.1,0.1-0.1c0,0-0.1,0-0.1,0c0,0,0-0.1,0.1-0.1c-0.1-0.1,0.1-0.2-0.1-0.3c0.1-0.1,0-0.1,0-0.2c0,0,0.1-0.2,0-0.2
			c0-0.1,0-0.1,0-0.1c0,0,0,0,0-0.1c0.1,0,0.1,0,0-0.1c0-0.1,0-0.2,0-0.2c0,0,0,0-0.1,0c0.1,0,0-0.1,0.1-0.1c0,0-0.1,0,0,0
			c0-0.1-0.1-0.2,0-0.1c0-0.1,0-0.1,0-0.2c0,0.1,0,0,0.1,0c-0.1-0.1,0-0.1,0-0.2c0.1,0,0,0,0,0c0,0,0-0.1,0,0c0-0.1,0.1-0.1,0.2,0
			c0.1-0.1,0.1,0,0.1-0.1c0,0.1,0,0,0,0.1c0-0.1,0.1,0,0.2-0.1c0,0,0.2,0.1,0.1,0.1c0.1,0.1,0,0.1,0.1,0.1c-0.1,0,0,0-0.1,0
			c0,0.1,0.1,0.2,0.2,0.2c-0.1,0.1,0,0.1,0,0.2c-0.1,0,0,0,0,0c-0.1,0.1,0.1,0.1,0,0.1c0,0,0.1,0,0.1,0c0,0.1,0,0.2,0,0.2
			c0.1,0,0.1,0.1,0,0.1c0,0-0.1,0.1,0,0.1c0,0,0,0.1,0,0.2c0,0,0.1,0.1,0,0.1c0,0.1,0,0.1-0.1,0.2c0.2,0.1,0,0.2,0.1,0.3
			c-0.1,0,0,0-0.1,0.1c0,0,0.1,0,0.1,0c-0.1,0,0,0.1-0.1,0.1c0.1,0.1,0.1,0.1,0,0.2c0,0,0.1,0,0.1,0c0,0,0,0,0,0c0,0,0,0,0,0
			c-0.1,0.1,0,0.1,0,0.2c0,0,0,0,0,0c-0.1,0.3,0,0.1,0,0.5c0.1,0.1,0.1,0.3,0,0.3c0,0.1,0,0.2,0,0.2c0.1,0.1,0,0.2,0,0.4
			c0,0,0-0.1,0,0c0,0,0,0,0.1,0c-0.1,0,0,0.2,0,0.2c0,0-0.1,0-0.1,0c0,0,0.1,0,0.1,0.1c0,0,0,0.1-0.1,0.1c0,0,0-0.1,0-0.1
			c0,0.1,0,0.1,0,0.2c0,0,0.1,0,0.1,0c-0.1,0-0.1,0-0.1,0c-0.1,0.2,0.1,0.2,0,0.2l-0.1,0.1c0,0,0,0.1,0,0.1c-0.1,0-0.1,0.1-0.1,0.2
			c-0.1,0-0.1,0,0,0c-0.1,0,0,0.1-0.1,0.1c0,0,0.1,0,0.1,0c-0.1,0-0.1,0.1-0.1,0.2c0.1,0,0.1,0.1,0,0.1c0,0,0,0,0.1,0
			c0,0-0.1,0.1-0.1,0.2c0,0,0,0,0,0c-0.1,0-0.1,0-0.2,0c0,0.2-0.2,0-0.2,0.2c0-0.1,0,0-0.1,0c0,0-0.1-0.1-0.1,0
			c0.1-0.1-0.1-0.1-0.1-0.1c0,0,0-0.2-0.1-0.2c0-0.1,0-0.2,0-0.1c0,0-0.1,0-0.1-0.1c0.1,0,0,0,0-0.1c0-0.1,0-0.1,0-0.1
			c0,0,0,0-0.1,0c0.1,0,0-0.1,0.1-0.1c0,0-0.1-0.1,0,0c0-0.1-0.2-0.1-0.1-0.1c-0.1-0.1,0.1-0.2,0.1-0.2c0-0.1,0-0.1-0.1-0.2
			c0,0,0-0.1,0.1-0.1c0,0-0.1,0-0.1,0c0-0.1,0-0.2,0-0.3c0,0,0-0.1,0-0.1c0,0,0,0,0.1,0c0,0,0,0-0.1,0c0,0,0.1,0,0.1,0
			c0,0-0.1-0.1,0-0.1c0,0,0,0-0.1,0c0,0,0,0,0.1,0c0-0.2,0.1-0.2,0-0.3c0,0,0-0.1-0.1-0.2c0.1-0.1,0.1-0.1,0.1-0.2c0,0-0.1,0-0.2,0
			c-0.1,0-0.3,0-0.3,0.1C40.8,32.6,40.7,32.7,40.7,32.7z M44.8,38.5c0,0.1,0,0.2,0,0.3c0,0,0,0,0,0c-0.1,0-0.1,0.3-0.1,0.4
			c0,0,0-0.1,0-0.1c0,0.1,0,0.1-0.1,0c-0.1,0.1-0.1,0.2-0.2,0.3c0,0,0,0,0-0.1c0,0.1-0.1,0-0.1,0.1c0,0-0.1-0.1,0,0
			c-0.1,0-0.2,0-0.2,0.1c-0.1,0-0.1,0-0.1,0l-0.1,0.2c-0.1,0.2,0,0-0.2,0.1c0,0,0,0.1-0.1,0c-0.1,0.1-0.1,0-0.1,0c0,0-0.1,0-0.1,0
			c0,0,0,0.1,0,0.1c0,0,0,0,0,0c0,0-0.2-0.1-0.2,0c0,0,0,0-0.1-0.1c0,0,0,0,0,0c-0.1,0.1-0.1,0.1-0.2,0c0,0-0.1,0-0.2,0
			c-0.1,0.1,0,0.1-0.1,0c-0.3,0.1,0.1,0-0.1,0.1c0,0,0,0,0,0c-0.1,0.1-0.2,0.1-0.2,0.2c0,0,0,0,0,0c0,0,0,0,0,0c0,0,0,0,0,0
			c-0.1,0.1-0.1,0.1-0.2,0c0,0.1-0.1,0-0.1,0.1c0,0,0-0.1,0-0.1c0,0-0.1,0-0.1,0.1c-0.1-0.1-0.2,0.1-0.3,0c-0.1,0.1-0.1,0-0.1,0
			l0-0.1l0,0c0-0.4-0.1-0.3,0-0.6c0,0,0,0,0,0c0-0.1-0.1-0.2,0-0.3c0,0,0,0,0,0c0,0,0,0,0,0c0,0,0,0-0.1,0c0-0.1,0.1-0.1,0-0.2
			c0.1,0,0-0.1,0.1-0.1c0,0-0.1,0-0.1,0c0,0,0-0.1,0.1-0.1c-0.2-0.1,0-0.2-0.2-0.3c0.1-0.1,0-0.1,0-0.2c0,0,0.1-0.2,0-0.2
			c0-0.1,0-0.2,0-0.2c0,0-0.1,0-0.1,0c0.1,0,0.1-0.1,0-0.1c0-0.1,0-0.2,0.1-0.3c0,0,0,0-0.1,0c0.1,0,0-0.1,0.1-0.1c-0.1,0-0.1,0,0,0
			c0-0.1-0.1-0.2,0-0.1c0-0.1,0-0.1,0-0.2c0,0.1,0,0,0.1,0c-0.1-0.1,0.1-0.1,0.1-0.2c0.1,0,0.1-0.1,0.1-0.1c0,0,0-0.1,0,0
			c0-0.1,0.1-0.2,0.1-0.1c0.1-0.1,0.1-0.1,0.2-0.1c0,0.1,0,0,0,0.1c0-0.1,0.1,0,0.2-0.1c0,0,0.2,0.1,0.1,0.1
			c0.1,0.1,0.1,0.2,0.2,0.2c-0.1,0,0,0-0.1,0c0.1,0.1,0.1,0.1,0.2,0.2c-0.1,0.1,0,0.1,0,0.2c-0.1,0-0.1,0,0,0c-0.1,0.1,0,0.1,0,0.1
			c0,0,0.1,0,0.1,0c0,0.1,0,0.1,0,0.2c0.1,0,0.1,0.1,0,0.1c0,0-0.1,0.1,0,0.1c0,0,0,0.1,0,0.2c0,0,0.1,0.2,0,0.2
			c0,0.1,0.1,0.1,0,0.2c0,0,0,0,0,0c0.1,0,0,0,0-0.1c0.1,0,0.2-0.1,0.2-0.1c0.1,0,0,0.1,0.2,0.1c0,0-0.1,0,0,0c0,0,0,0,0,0.1
			c0-0.1,0.1,0,0.1,0c0,0,0-0.1,0-0.1c0,0,0,0.1,0.1,0.1c0,0,0.1-0.1,0.1-0.1c0,0,0.1,0,0.1,0c0.1,0,0.2,0,0.3,0c0,0,0,0.1,0,0.1
			c0-0.1,0.1-0.1,0.1-0.1c0.1,0,0.1,0,0.2,0c0.1,0,0-0.1,0.1-0.1c0-0.1,0,0,0.1,0.1c0-0.1,0-0.1,0,0c0-0.1,0.1-0.1,0.1-0.2
			c0,0,0,0.1,0,0.1c0-0.1,0,0,0.1-0.1c0,0.1,0.1,0.1,0.1,0c0,0,0.1,0,0.2,0c0,0,0.1-0.1,0.1-0.1c0,0,0.1,0.1,0.1,0.1
			c0.1,0,0.1,0.3,0.1,0.2c0,0,0.1,0.1,0.1,0.1c0,0,0,0,0.1,0.1C44.8,38.2,45,38.4,44.8,38.5z"/>
	</g>
	<g>
		<path class="st0" d="M17.8,4.6c0.5,0.3,1.1,0.4,1.3,1c0.3,0.9-0.1,1.8-0.2,2.7c0,0.1-0.1,0.3-0.1,0.4c0.2,0,0.4-0.2,0.6-0.4
			C19.7,8,20,7.7,20.3,7.4c0.8-0.7,1.2-1.1,2.2-0.6C22.8,6.9,23,7,23.2,7.1c0.2,0.1,0.3,0.2,0.5,0.3c0.1,0.1,0.9,0.5,0.9,0.1
			c0-0.2-0.2-0.4-0.3-0.6c-0.2-0.2-0.4-0.5-0.6-0.8c-0.3-0.6-0.7-1-0.8-1.8c-0.1-0.5,0.4-0.8,0.8-1.1C24.4,3,25,2.4,25,2.1
			c-0.1-0.4-1.7,0.1-2,0.1c-0.7,0.1-1.4,0.1-1.8-0.5C21,1.3,20-1,19.7,0.5c-0.1,0.5-0.2,0.9-0.2,1.4c0,0.2,0,0.5-0.1,0.7
			c-0.1,0.2-0.3,0.3-0.5,0.3c-0.2,0.1-2.8,0.6-2.8,0.7c0,0,0,0,0,0C16.2,4,17.5,4.4,17.8,4.6z"/>
	</g>
</g>
</svg>
