<?xml version="1.0" encoding="utf-8"?>
<!-- Generator: Adobe Illustrator 23.0.3, SVG Export Plug-In . SVG Version: 6.00 Build 0)  -->
<svg version="1.1" id="레이어_1" xmlns="http://www.w3.org/2000/svg" xmlns:xlink="http://www.w3.org/1999/xlink" x="0px"
	 y="0px" viewBox="0 0 173 50" style="enable-background:new 0 0 173 50;" xml:space="preserve">
<style type="text/css">
	.st0{fill:#515453;}
	.st1{fill:#00A0C8;}
</style>
<g>
	<g>
		<path class="st0" d="M43.4,46.9c0.8,1.4,1.8,2.2,3.4,2.2c1.7,0,2.9-1.4,2.9-3.1c0-3.9-6.6-2.2-6.6-7c0-2.7,2.2-4.1,4.7-4.1
			c1,0,2.2,0.3,3,1c-0.3,0.6-0.4,1.1-0.6,1.7h-0.2c-0.4-1.1-1.4-1.8-2.6-1.8c-1.5,0-2.7,1-2.7,2.5c0,3.9,6.7,2.3,6.7,6.8
			c0,3-2.4,4.8-5.2,4.8c-1,0-2.7-0.4-3.5-1.2c0.2-0.6,0.3-1.3,0.4-1.9H43.4z"/>
		<path class="st0" d="M55.6,43.4c0,3.7,1.1,5.7,4.7,5.7c3.4,0,4.6-2.4,4.6-5.9l0-7.9c0.2,0,0.4,0.1,0.6,0.1c0.2,0,0.4,0,0.6-0.1
			v8.4c0,4.2-2.5,6.3-6.2,6.3c-2.1,0-3.5-0.5-4.6-1.5c-1.3-1.2-1.5-3.1-1.5-4.8v-8.5c0.3,0,0.6,0.1,0.9,0.1c0.3,0,0.6,0,0.9-0.1
			V43.4z"/>
		<g>
			<path class="st0" d="M69.7,35.2c0.3,0,0.6,0.1,0.9,0.1c0.3,0,0.6,0,0.9-0.1v14.5c-0.3,0-0.6-0.1-0.9-0.1c-0.3,0-0.6,0-0.9,0.1
				V35.2z"/>
			<path class="st0" d="M80,49.8c-0.3,0-0.6-0.1-0.9-0.1c-0.3,0-0.6,0-0.9,0.1V36.3c-2.1,0-3.4,0.1-4.6,0.3c0-0.2,0.1-0.4,0.1-0.6
				c0-0.2,0-0.4-0.1-0.6h10.9c0,0.2-0.1,0.4-0.1,0.6c0,0.2,0,0.4,0.1,0.6c-1.1-0.1-2.5-0.3-4.4-0.3V49.8z"/>
			<path class="st0" d="M88.1,41.6h3.3c0.6,0,1.3-0.1,1.9-0.1c0,0.2-0.1,0.4-0.1,0.6c0,0.2,0,0.4,0.1,0.6c-0.6,0-1.2-0.1-1.9-0.1
				h-3.3v6.2c1.3,0,2.6,0,3.8-0.1c0.7,0,1.3-0.1,1.9-0.2c0,0.2-0.1,0.4-0.1,0.6c0,0.2,0,0.4,0.1,0.6h-7.6V35.2h7.5
				c0,0.2-0.1,0.4-0.1,0.6c0,0.2,0,0.4,0.1,0.6c-0.6-0.1-1.3-0.2-1.9-0.2l-2.1,0h-1.6V41.6z"/>
			<path class="st0" d="M96,46.9c0.8,1.4,1.8,2.2,3.4,2.2c1.7,0,2.9-1.4,2.9-3.1c0-3.9-6.6-2.2-6.6-7c0-2.7,2.2-4.1,4.7-4.1
				c1,0,2.2,0.3,3,1c-0.3,0.6-0.4,1.1-0.6,1.7h-0.2c-0.4-1.1-1.4-1.8-2.6-1.8c-1.5,0-2.7,1-2.7,2.5c0,3.9,6.7,2.3,6.7,6.8
				c0,3-2.4,4.8-5.2,4.8c-1,0-2.7-0.4-3.5-1.2c0.2-0.6,0.3-1.3,0.4-1.9H96z"/>
			<path class="st0" d="M122.6,35.2c0.3,0,0.6,0.1,0.9,0.1c0.3,0,0.6,0,0.9-0.1v14.5c-0.3,0-0.6-0.1-0.9-0.1c-0.3,0-0.6,0-0.9,0.1
				v-7.3c-1.5,0-3-0.1-4.4-0.1c-1.5,0-2.9,0.1-4.5,0.1v7.3c-0.3,0-0.6-0.1-0.9-0.1c-0.3,0-0.6,0-0.9,0.1V35.2c0.3,0,0.6,0.1,0.9,0.1
				c0.3,0,0.6,0,0.9-0.1v6.1c1.5,0,3,0.1,4.5,0.1c1.5,0,2.9-0.1,4.4-0.1V35.2z"/>
			<path class="st0" d="M140.5,42.3c0.1,2.3-1.5,7-5.9,7c-3.2,0-5.8-2.2-5.8-6.6c0-4.3,2.2-7.1,6-7.1c1.7,0,3.3,0.7,4.4,2.1
				C140.3,39.1,140.5,40.6,140.5,42.3z M134.5,50c4.7,0,8.1-3.1,8.1-7.8c0-5.1-4-7.2-8-7.2c-4.4,0-7.8,2.9-7.8,7.6
				C126.7,47,129.8,50,134.5,50z"/>
			<path class="st0" d="M148.3,49.8c-0.3,0-0.6-0.1-0.9-0.1c-0.3,0-0.6,0-0.9,0.1V36.3c-2.1,0-3.4,0.1-4.6,0.3
				c0-0.2,0.1-0.4,0.1-0.6c0-0.2,0-0.4-0.1-0.6h10.9c0,0.2-0.1,0.4-0.1,0.6c0,0.2,0,0.4,0.1,0.6c-1.1-0.1-2.5-0.3-4.4-0.3V49.8z"/>
			<path class="st0" d="M156.4,41.6h3.3c0.6,0,1.3-0.1,1.9-0.1c0,0.2-0.1,0.4-0.1,0.6c0,0.2,0,0.4,0.1,0.6c-0.6,0-1.3-0.1-1.9-0.1
				h-3.3v6.2c1.3,0,2.6,0,3.8-0.1c0.7,0,1.3-0.1,1.9-0.2c0,0.2-0.1,0.4-0.1,0.6c0,0.2,0,0.4,0.1,0.6h-7.7V35.2h7.5
				c0,0.2-0.1,0.4-0.1,0.6c0,0.2,0,0.4,0.1,0.6c-0.6-0.1-1.3-0.2-1.9-0.2l-2.1,0h-1.6V41.6z"/>
			<path class="st0" d="M167.2,48.7c1.3,0,2.6,0,3.8-0.1c0.7,0,1.3-0.1,2-0.2c0,0.2-0.1,0.4-0.1,0.6c0,0.2,0,0.4,0.1,0.6h-7.7V35.2
				c0.3,0,0.6,0.1,0.9,0.1c0.3,0,0.6,0,0.9-0.1V48.7z"/>
		</g>
		<path class="st0" d="M6.5,49.8c-0.3,0-0.6-0.1-0.9-0.1c-0.3,0-0.6,0-0.9,0.1V36.3c-2.1,0-3.4,0.1-4.6,0.3c0-0.2,0.1-0.4,0.1-0.6
			c0-0.2,0-0.4-0.1-0.6h10.9c0,0.2-0.1,0.4-0.1,0.6c0,0.2,0,0.4,0.1,0.6c-1.1-0.1-2.5-0.3-4.4-0.3V49.8z"/>
		<path class="st0" d="M23.4,35.3c0.3,0,0.6,0.1,0.9,0.1c0.3,0,0.6,0,0.9-0.1v14.5c-0.3,0-0.6-0.1-0.9-0.1c-0.3,0-0.6,0-0.9,0.1
			v-7.3c-1.5,0-3-0.1-4.4-0.1c-1.5,0-2.9,0.1-4.5,0.1v7.3c-0.3,0-0.6-0.1-0.9-0.1c-0.3,0-0.6,0-0.9,0.1V35.3c0.3,0,0.6,0.1,0.9,0.1
			c0.3,0,0.6,0,0.9-0.1v6.1c1.5,0,3,0.1,4.5,0.1c1.5,0,2.9-0.1,4.4-0.1V35.3z"/>
		<path class="st0" d="M30.3,41.6h3.3c0.6,0,1.2-0.1,1.9-0.1c0,0.2-0.1,0.4-0.1,0.5c0,0.2,0,0.4,0.1,0.6c-0.6,0-1.2-0.1-1.9-0.1
			h-3.3v6.2c1.3,0,2.6,0,3.8-0.1c0.7,0,1.3-0.1,1.9-0.2c0,0.2-0.1,0.4-0.1,0.6c0,0.2,0,0.4,0.1,0.6h-7.6V35.3H36
			c0,0.2-0.1,0.4-0.1,0.6c0,0.2,0,0.4,0.1,0.6c-0.6-0.1-1.3-0.2-1.9-0.2l-2.1,0h-1.6V41.6z"/>
	</g>
	<path class="st1" d="M95.4,0.6L94.7,0L94,0.6l-0.7,0.6c-1,0.9-2,1.7-2.8,2.6c-1.1-1.2-2.2-2.3-3.3-3.3L86.5,0l-0.2,0.1l-0.5,0.4
		c-1.1,1-2.2,2.1-3.3,3.3c-0.8-0.9-1.8-1.8-2.8-2.6L79,0.6L78.3,0l-0.7,0.6C64.7,12,64.7,25.3,64.7,25.9l0,0.3l2.1,0v-0.3
		c0-0.1,0.1-12.5,11.5-23.1c1,0.9,1.8,1.8,2.7,2.8c-7.8,9.6-8.1,19.1-8.1,20.3c0,0,0,0.3,0,0.3H75l0-0.3c0-0.8,0.2-5.1,2.6-10.6
		c0.5,0.6,4.1,5,4.3,5.2c-0.6,2.9-0.7,4.9-0.7,5.3l0,0.3h2.1l0-0.3c0,0,0-1.3,0.4-3.2c0.6,0.7,3,3.6,3,3.6s2.4-2.9,3-3.6
		c0.3,1.9,0.4,3.2,0.4,3.2l0,0.3h2.1l0-0.3c0-0.5-0.1-2.5-0.7-5.3c0.1-0.2,3.8-4.6,4.2-5.2c2.4,5.5,2.6,9.7,2.6,10.6l0,0.3h2.1
		c0,0,0-0.3,0-0.3c0-1.1-0.3-10.6-8.1-20.3c0.9-1,1.8-1.9,2.7-2.8c11.4,10.5,11.5,22.9,11.5,23.1v0.3l2.1,0l0-0.3
		C108.3,25.3,108.3,12,95.4,0.6z M94.4,13.1c-0.2,0.2-3.4,4.2-3.9,4.8c-0.7-2.2-1.6-4.4-2.7-6.5c0.8-1.4,1.8-2.8,2.9-4.2
		C92,9.1,93.3,11,94.4,13.1z M88.8,20c-0.1,0.2-2,2.5-2.3,2.9c-0.3-0.4-2.2-2.7-2.3-2.9c0.6-2.1,1.4-4.2,2.3-6.2
		C87.5,15.8,88.3,17.9,88.8,20z M86.6,9.2c0,0-0.1,0.1-0.1,0.2c0-0.1-0.1-0.2-0.1-0.2c-0.7-1.2-1.5-2.5-2.5-3.7
		c0.9-1,1.7-1.8,2.6-2.7c0.9,0.8,1.7,1.7,2.6,2.7C88.1,6.7,87.3,8,86.6,9.2z M85.3,11.5c-1.1,2.1-2,4.3-2.7,6.5
		c-0.5-0.6-3.7-4.6-3.9-4.8c1.1-2.2,2.4-4.1,3.8-5.9C83.5,8.7,84.4,10.1,85.3,11.5z"/>
</g>
</svg>
