<?xml version="1.0" encoding="utf-8"?>
<!-- Generator: Adobe Illustrator 23.0.3, SVG Export Plug-In . SVG Version: 6.00 Build 0)  -->
<svg version="1.1" id="레이어_1" xmlns="http://www.w3.org/2000/svg" xmlns:xlink="http://www.w3.org/1999/xlink" x="0px"
	 y="0px" viewBox="0 0 212.2 50" style="enable-background:new 0 0 212.2 50;" xml:space="preserve">
<style type="text/css">
	.st0{fill:#004D79;}
</style>
<g>
	<path class="st0" d="M43,46.5l-8.5-29l-8.5,29c-0.5,1.8-2.1,3-4,3h-5.9c-1.8,0-3.4-1.2-3.9-2.9L0,8.9h7c1.8,0,3.4,1.2,3.9,2.9
		l8.4,27l7.8-26.9c0.5-1.8,2.1-3,4-3h6.7c1.8,0,3.4,1.2,4,3l7.8,26.9l8.4-27c0.5-1.7,2.1-2.9,3.9-2.9h7L56.8,46.6
		c-0.5,1.7-2.1,2.9-3.9,2.9H47C45.1,49.5,43.5,48.3,43,46.5"/>
	<path class="st0" d="M140.3,50c-4.5,0-7.9-1.1-10.3-3c-3.6-2.8-5.2-6.9-5.2-12.8V4.1c0-2.3,1.8-4.1,4.1-4.1h5.3v33.7
		c0,3.1,0.6,5.3,1.9,6.7c0.8,0.8,1.9,1.3,3,1.5c1.9,0.4,3.1,2.2,3.1,4.1v4C141.6,50,140.9,50,140.3,50"/>
	<path class="st0" d="M190.1,50c-7.5,0-15.6-1.8-19.6-3.5l1.2-3.6c0.7-2.1,3-3.3,5.1-2.7c4.6,1.4,8.8,2,13.4,2
		c6.4,0,13.2-0.4,13.2-5.2c0-4.3-5.9-4.5-11.6-4.7c-0.8,0-1.6-0.1-2.4-0.1c-9.4-0.5-17.9-1.7-17.9-11.3c0-10.4,10.9-12.6,20.1-12.6
		c5.9,0,11.4,0.7,17.8,2.4l-1,3.4c-0.6,2-2.7,3.3-4.7,2.9c-4.2-0.8-8.1-1.3-11.6-1.3c-8.1,0-11.4,1.4-11.4,4.7
		c0,3.4,5.3,3.7,10.4,3.9c9.9,0.5,21.1,1.1,21.1,11.8C212.2,47.7,203.4,50,190.1,50"/>
	<path class="st0" d="M116.5,26.5c0-4.2-1.6-8.4-4.6-11.8c-3.6-4.1-9.5-6.3-16.8-6.3c-14.6,0-23.6,8.3-23.6,21.6
		c0,12.9,8.5,20,23.8,20c3.8,0,7.5-0.3,11.1-1c3.2-0.6,6.1-1.3,9.4-2.3l-1-3.4c-0.6-2.1-2.7-3.4-4.9-2.9c-3.5,0.8-8.8,1.8-13.6,1.8
		c-7.2,0-13.9-2.2-14.6-9.5h34.5C116.4,30.5,116.5,28.9,116.5,26.5 M95.1,15.7c6.9,0,11.1,2.7,12.3,10.1H81.7
		C82.8,19.1,88.1,15.7,95.1,15.7"/>
	<path class="st0" d="M162.8,50c-4.5,0-7.9-1.1-10.3-3c-3.6-2.8-5.2-6.9-5.2-12.8V4.1c0-2.3,1.8-4.1,4.1-4.1h5.3v33.7
		c0,3.1,0.6,5.3,1.9,6.7c0.8,0.8,1.9,1.3,3,1.5c1.9,0.4,3.1,2.2,3.1,4.1v4C164.1,50,163.4,50,162.8,50"/>
</g>
</svg>
