<?xml version="1.0" encoding="utf-8"?>
<!-- Generator: Adobe Illustrator 23.0.3, SVG Export Plug-In . SVG Version: 6.00 Build 0)  -->
<svg version="1.1" id="레이어_1" xmlns="http://www.w3.org/2000/svg" xmlns:xlink="http://www.w3.org/1999/xlink" x="0px"
	 y="0px" viewBox="0 0 56 56" style="enable-background:new 0 0 56 56;" xml:space="preserve">
<style type="text/css">
	.st0{fill:#FFFFFF;}
	.st1{fill:#CBCBCB;}
	.st2{fill:#040000;}
</style>
<g>
	<circle class="st0" cx="28" cy="28" r="27.5"/>
	<path class="st1" d="M28,56C12.6,56,0,43.4,0,28S12.6,0,28,0s28,12.6,28,28S43.4,56,28,56z M28,1C13.1,1,1,13.1,1,28s12.1,27,27,27
		s27-12.1,27-27S42.9,1,28,1z"/>
</g>
<g>
	<path class="st2" d="M15.3,29.3l-0.9-1.1l12.6-11c0.3-0.2,0.7-0.2,0.9,0l13.7,10.7l-0.9,1.2L27.5,18.8L15.3,29.3z"/>
	<path class="st2" d="M36.7,38.9H19.3c-0.4,0-0.7-0.3-0.7-0.7V25H20v12.5h16V25h1.5v13.2C37.5,38.6,37.2,38.9,36.7,38.9z"/>
</g>
</svg>
