<?xml version="1.0" encoding="utf-8"?>
<!-- Generator: Adobe Illustrator 23.0.3, SVG Export Plug-In . SVG Version: 6.00 Build 0)  -->
<svg version="1.1" id="레이어_1" xmlns="http://www.w3.org/2000/svg" xmlns:xlink="http://www.w3.org/1999/xlink" x="0px"
	 y="0px" viewBox="0 0 56 56" style="enable-background:new 0 0 56 56;" xml:space="preserve">
<style type="text/css">
	.st0{fill:#FFFFFF;}
	.st1{fill:#CBCBCB;}
	.st2{fill:#212121;}
</style>
<g>
	<circle class="st0" cx="28" cy="28" r="27.5"/>
	<path class="st1" d="M28,56C12.6,56,0,43.4,0,28S12.6,0,28,0c15.4,0,28,12.6,28,28S43.4,56,28,56z M28,1C13.1,1,1,13.1,1,28
		c0,14.9,12.1,27,27,27s27-12.1,27-27C55,13.1,42.9,1,28,1z"/>
</g>
<g>
	<polygon class="st2" points="36.8,27.5 27.9,18.8 19.3,27.4 18.2,26.4 27.9,16.7 37.8,26.4 	"/>
	<rect x="27.1" y="17.7" class="st2" width="1.5" height="21.6"/>
</g>
</svg>
